<svg width="272" height="486" fill="none" xmlns="http://www.w3.org/2000/svg"><path d="M80.701 110.83c-.04-2.111.474-4.303 1.08-6.414-.655 2.152-1.195 4.442-1.08 6.414zM129.801 98.306c-.024-.017-.049-.025-.066-.041.009.008.017.008.025.016.017.008.033.008.041.025zM62.254 93.258c.557-2.446 2.324-4.303 4.524-5.546-2.282 1.063-4.008 2.691-4.524 5.546zM122.03 121.129c.073.057.147-.065.073-.131-6.536-5.145-9.906-12.811-13.71-20.009.302.597.589 1.186.875 1.767 3.297 6.748 6.561 13.792 12.762 18.373zM58.868 46.8c.122-2.633.212-5.267.237-7.902a33.36 33.36 0 0 0-.066 1.53l-.171 6.373zM63.636 53.05c-.548 3.297-1.071 6.766-1.251 10.21.196-3.428.76-6.855 1.309-10.193 0-.04-.05-.057-.058-.016zM62.598 40.886c-.058-.36-.107-.72-.164-1.08 0-.016-.033-.008-.024.009l.171 1.08c0 .008.017 0 .017-.009zM93.88 26.178c1.505 5.464 2.585 10.79 2.724 16.385.074-5.628-.76-11.338-2.724-16.385zM94.854 23.797c.335.246.646.524.949.802a15.1 15.1 0 0 0-.876-.9c-.057-.057-.139.04-.073.098zM95.803 24.599c3.943 4.368 4.802 10.635 4.753 16.524.114-5.914-.712-12.72-4.753-16.524zM80.734 15.183c.04.614.344 1.505.663 2.356-.221-.785-.434-1.57-.663-2.356zM81.364 14.365c.147.172.286.344.417.515-.09-.261-.22-.433-.417-.515zM58.45 26.8c-.253-.491-.482-.99-.654-1.522.155.54.36 1.072.654 1.521zM6.496 91.237c.564-.278 1.35-.916 2.053-1.505-.687.5-1.366.998-2.053 1.505zM35.627 52.2c1.758 1.047 3.542 2.004 5.186 3.133-1.604-1.252-3.37-2.29-5.187-3.133z" fill="#7C909C"/><path d="M270.8 258.071c-15.616 5.293-31.184 10.733-46.759 16.165-15.503 5.407-30.997 10.815-46.499 16.222-7.689 2.683-15.379 5.391-23.077 8.05a420.302 420.302 0 0 1-8.36 2.806c-1.105-2.945-2.692-5.719-4.86-8.214-5.824-6.691-14.733-9.628-23.151-8.426-.711-8.09-1.709-16.606-3.026-25.809-.082-.548-.458-.876-1.031-.876-.491 0-1.096.295-1.293.851-3.804 10.709-6.626 21.785-8.925 32.976a26.6 26.6 0 0 0-3.108 3.657c-1.66 2.364-3.69 5.726-3.55 8.72.106 2.25 1.725 3.452 3.615 4.058-1.227 7.313-2.315 14.626-3.403 21.858-.744 4.99-1.513 10.152-2.315 15.199-.548 3.461-1.088 6.929-1.628 10.398-1.742 11.183-3.542 22.758-5.612 34.08-.67 3.657-1.562 7.322-2.43 10.864-.76.523-1.52 1.047-2.29 1.562.36-3.051.556-5.865.59-8.508.016-1.374 0-2.83-.042-4.581.548-9.072 1.22-18.398 1.808-26.627.417-5.849 1.023-11.772 1.604-17.507.556-5.489 1.137-11.166 1.554-16.753.172-2.291.36-4.606.556-6.937.81-9.621 1.644-19.568.85-29.058 0-.024-.016-.057-.032-.122l-.024-.066.024-.057c.745-1.628.72-3.485-.049-4.974l-.05-.09.058-.082c3.01-4.131 4.892-9.105 6.708-13.915.36-.941.712-1.881 1.08-2.822a139.73 139.73 0 0 1 3.027-6.062 170.264 170.264 0 0 1 5.636-9.784c.458-.744.941-1.472 1.424-2.217.981-1.489 1.996-3.035 2.838-4.695a15.02 15.02 0 0 1 1.113-.818c.36-.238.532-.671.417-1.056l-.033-.098.074-.073a.446.446 0 0 0 .139-.426c-.213-1.063-.123-2.119.327-3.387 1.53-1.979 3.894-3.337 6.177-4.654 1.235-.712 2.397-1.383 3.419-2.135 2.552-1.882 4.687-4.132 6.348-6.692 2.986-4.622 4.622-10.831 6.062-16.312.36-1.366.712-2.7 1.072-3.976.008-.016-.009-.057-.033-.082l-.098-.106.098-.106c2.2-2.487 4.196-5.179 5.693-7.248 4.303-5.956 7.461-11.379 9.654-16.582 3.795-9.015 6.765-19.494 8.826-31.168.99-2.503 1.366-4.892 1.154-7.313a.478.478 0 0 0-.107-.262l-.073-.09.057-.098c.213-.344.319-.679.286-1.113l-.09-.024c-.859.212-1.603.785-2.388 1.39-.557.426-1.129.867-1.751 1.17-.417.205-.851.401-1.276.589-1.104.499-2.25 1.015-3.215 1.767a6.901 6.901 0 0 0-1.186 1.211l-.197.262-.204-.696c-.884-2.928-2.659-4.687-4.745-4.687-.548 0-1.129.114-1.718.343-1.104.426-1.938 1.137-2.487 2.127l-.302.54-.008-.621c-.041-5.596.916-10.242 2.92-14.202a.384.384 0 0 0-.025-.368.297.297 0 0 0-.245-.155.285.285 0 0 0-.155.049c-4.238 2.552-7.24 6.732-9.441 13.17-.801 2.356-1.505 4.745-2.192 7.06-1.604 5.424-3.256 11.027-6.234 16.206-.351.605-.703 1.219-1.071 1.849-4.958 8.515-11.134 19.117-5.972 28.402l.155.287-.327-.041a3.849 3.849 0 0 0-.442-.033c-.188 0-.376.016-.564.049l-.049.008-.049-.024a.807.807 0 0 0-.303-.066.51.51 0 0 0-.254.066c-1.955 1.227-3.084 3.64-4.163 5.963-.434.933-.843 1.816-1.301 2.602-2.561 4.434-4.565 8.205-6.046 12.172-3.002 8.026-.31 15.404 2.446 21.695l.033.074-.041.073c-.572 1.007-1.153 2.545-1.62 3.78-.327.851-.605 1.595-.826 2.02a131.35 131.35 0 0 1-4.098 7.453c-2.053 3.444-4.328 6.831-6.536 10.103-.925 1.374-1.857 2.757-2.766 4.139-.278.426-.654.957-1.071 1.563l-.205.286-.122.147-.099-.098c-.032.041-.458.466-.458.466l-.008-.392c-.13-6.168-.867-12.402-1.587-18.431-.499-4.188-1.014-8.516-1.325-12.811-.777-10.749-1.268-22.341-1.522-35.421-.245-12.778-.212-24.1.09-34.604.18-6.275.36-11.927.745-17.711.04-.605.073-1.211.114-1.816.156-2.667.32-5.432.884-8.058.106-.482.212-.941.31-1.374.475-2.013.86-3.6.279-5.833l-.041-.082-.033-.098.074-.073c.695-.72 1.21-1.522 1.53-2.397.662-1.8.18-3.682-.287-5.506-.335-1.325-.654-2.569-.572-3.796l-.025-.147.115-.024-.074-.058.008-.09c.164-1.243.777-2.282 1.882-3.166.032-.024.04-.049.04-.09l.025-.302.27.188c.147.106.295.204.434.327 1.914 1.612 2.061 2.839 1.93 5.26l-.024.344c-.033.482-.066.9.073 1.35.303.957.974 1.529 2.242 1.93a17.9 17.9 0 0 0 5.203.786c1.799 0 3.411-.303 4.646-.884.695-.327 1.35-.802 2.053-1.309 1.129-.818 2.307-1.669 3.649-1.84.262-.033.524-.05.777-.05.663 0 1.309.099 1.931.189.621.09 1.202.18 1.799.18.663 0 1.236-.107 1.784-.344.965-.409 1.857-1.063 2.724-1.702.425-.319.851-.629 1.284-.916 1.996-1.309 4.107-1.48 5.718-1.48.917 0 1.841.057 2.847.122.507.033 1.121.115 1.767.197 1.105.139 2.348.302 3.551.302 2.225 0 3.665-.581 4.384-1.767.549-.908.516-2.045.401-3.141-.049-.434-.106-.851-.155-1.252-.295-2.168-.54-4.033.712-6.209.523-.908 1.194-1.775 1.84-2.609l.246-.311h.008l.139-.18c1.153-1.497 2.209-3.002 2.446-4.908.302-2.48-.851-4.778-1.964-7.003-.466-.933-.948-1.89-1.308-2.839-.982-2.593-.63-5.178-.295-7.681.229-1.726.475-3.51.278-5.285-.36-3.337-2.642-5.93-6.111-6.92-.31-.09-.621-.172-.932-.246l-.098-.024-.025-.099c-.254-.998-1.162-1.521-1.881-1.791-.467-.172-.835-.246-1.203-.246a3.41 3.41 0 0 0-.483.041c-.253.05-.523.107-.793.172-.45.107-.916.221-1.374.262l-.058.008-.049-.033c-1.317-.85-2.413-2.34-3.468-3.787-1.129-1.546-2.299-3.141-3.69-3.845-1.047-.532-2.29-.794-3.787-.794-2.217 0-4.59.581-6.496 1.056l-.114.024c-.458.115-.908.238-1.35.368l-.147-.286.679-.499c.36-.262.711-.523 1.129-.818l.09-.025-.025-.04.041-.033.147-.05c1.219-.408 2.479-.826 3.502-.916a21.133 21.133 0 0 1 1.914-.081c2.593 0 5.121.458 7.591 1.153-2.667-.777-5.317-1.292-7.918-1.292-1.244 0-2.455.122-3.592.36l-.131-.295a87.058 87.058 0 0 1 2.643-1.857c.581-.294 1.161-.597 1.783-.924.834-.115 1.71-.18 2.593-.18 4.868 0 9.866 1.75 14.602 3.853-1.047-.475-2.094-.941-3.149-1.39-4.434-1.874-8.442-2.823-11.911-2.823h-.123l-.04-.32a26.989 26.989 0 0 1 6.397-.76c5.178 0 10.389 1.456 15.068 4.213 1.628.957 3.272 2.037 4.868 3.076.94.613 1.889 1.235 2.846 1.84a177.65 177.65 0 0 1-3.304-2.192c-4.688-3.15-9.531-6.413-15.249-7.452a21.355 21.355 0 0 0-3.828-.344c-1.596 0-3.215.18-4.811.524l-.122-.303c.613-.385 1.227-.77 1.849-1.178.589-.278 1.194-.54 1.873-.785.204 0 .417 0 .63.008l-.025-.237a7.683 7.683 0 0 1 1.096-.14l-.032-.204c2.282-.68 4.663-1.006 7.272-1.006 1.546 0 3.182.114 5.007.352 2.29.294 4.597.564 6.912.834 2.487.294 5.007.589 7.534.916-6.307-.998-12.81-1.996-19.183-2.299a18.02 18.02 0 0 0-.941-.024c-2.053 0-4.131.303-6.356.94l-.123-.302.614-.32c.417-.138.843-.27 1.268-.392l-.074-.229a46.904 46.904 0 0 1 5.113-1.505c2.217-.286 4.45-.63 6.635-1.039a47.997 47.997 0 0 1 3.869-.164c.262 0 .523 0 .793.009 4.025.073 8.083.368 12.001.654 2.651.196 5.35.393 8.066.524-2.519-.238-5.023-.598-7.477-.95-3.493-.498-7.109-1.014-10.692-1.177l-.024-.279c-.319.082-.63.164-.949.238-.458-.008-.916-.017-1.383-.017-.949 0-1.832.025-2.699.082a39.418 39.418 0 0 0-3.951.467l-.033-.148c-.368.115-.745.237-1.113.352a43.034 43.034 0 0 0-3.346.794l-.057-.148-.72.377c-1.26.376-2.511.81-3.706 1.292l-.155-.286 1.145-.802c7.878-5.514 16.026-11.207 26.047-13.056l-.008-.14.139-.024a7.579 7.579 0 0 1 1.464-.155c1.399 0 2.536.532 3.485 1.636.458.532.704 1.374.933 2.192.196.688.401 1.4.728 1.898.474.728.941 1.203 1.513 1.538l-.057.172c.18.016.36.04.54.065.311.131.646.221 1.014.287.262.049.532.073.835.09 0 0 .278.065.327.081l.016-.081h.131c.483 0 .966-.033 1.448-.058.499-.032.99-.057 1.489-.057 1.072 0 1.882.14 2.626.458 1.955.827 3.158 2.986 4.074 4.99l.09.197.024.049c.156.335.295.67.434.99l.27.621c1.063 2.397 1.914 4.074 3.984 5.465 1.35.908 2.904 1.53 4.409 2.119 2.053.81 4.172 1.652 5.817 3.247.384.377 1.889 2.316 1.881 3.665 0 .393-.123.704-.368.933-.066.065-.164.09-.335.09-.131 0-.303-.017-.467-.033-.155-.016-.302-.032-.417-.032-.082 0-.106.008-.106.008-.409.171-.867.27-1.309.368-.417.09-.843.188-1.227.335l-.156.066-.171.065c-.082 0-.164.008-.246.008l.025.098c-.622.287-1.236.638-1.825.982-1.014.59-2.069 1.194-3.215 1.505-.809.221-1.767.328-2.92.328-.998 0-1.996-.082-2.937-.164-1.366-.115-2.74-.36-4.066-.59-1.873-.326-3.812-.662-5.742-.662h-.049c-1.898.008-3.24.491-4.778 1.268l-.605.311-.466.246c-.418.22-.843.45-1.309.678-.123.058-.229.123-.385.197l-.335.22c-.197.132-.377.263-.548.393-.687.508-1.277.95-2.266.95-.761 0-1.669-.262-2.864-.827-.613-.286-1.178-.802-1.717-1.292-.319-.287-.622-.565-.925-.786a18.797 18.797 0 0 0-1.178-.802l.156-.286c1.554.72 2.977 1.276 4.286 1.66-2.372-.768-4.695-1.962-6.961-3.132-.9-.467-1.784-.916-2.651-1.342l-1.276-.613c.507.27 1.031.548 1.562.842.949.516 1.923 1.04 2.921 1.554l-.131.303c-2.528-.908-5.473-1.088-8.074-1.162a37.285 37.285 0 0 1-.908-.302l-.049.294-.679-.008c-4.23-.04-7.788-.31-11.838-3.264a32.661 32.661 0 0 0-1.39-.957l.065-.123c-.352-.171-.72-.335-1.121-.507-1.178-.638-2.257-.973-3.411-1.063 2.225.515 3.812 2.012 5.465 3.583 1.055 1.006 2.151 2.045 3.436 2.797 1.947 1.146 4.262 1.71 7.092 1.71h.385c1.243-.024 2.503-.204 3.73-.376 1.317-.188 2.675-.376 4.008-.376 1.187 0 2.242.147 3.224.458 1.325.417 2.445 1.284 3.525 2.118 1.35 1.04 2.618 2.03 4.262 2.225.189.025.377.033.557.033 1.407 0 2.609-.63 3.877-1.292.54-.287 1.096-.573 1.669-.81a11.16 11.16 0 0 1 4.336-.843c2.012 0 3.943.45 5.996.933.777.18 1.563.368 2.356.523 1.268.254 2.626.491 3.943.491 1.096 0 2.07-.155 2.97-.482 1.349-.491 2.642-1.293 3.902-2.062 2.078-1.284 4.229-2.61 6.732-2.61.458 0 .925.05 1.383.131.033.009.057.009.09.009.122 0 .343-.05.376-.246.761-4.196-1.636-7.698-7.133-10.406-.45-.22-.892-.433-1.342-.646-2.593-1.235-5.047-2.405-7.019-4.614-.818-.916-1.472-1.987-2.11-3.026-.851-1.391-1.727-2.83-3.011-3.886-1.366-1.129-2.659-1.563-4.597-1.563l-.041-.016c-.565.237-1.096.36-1.595.36-1.08 0-2.005-.565-2.741-1.677-1.317-.483-2.053-1.366-2.168-2.569-.196-.45-.311-.932-.425-1.399-.131-.54-.262-1.096-.515-1.587-.9-1.734-2.095-2.511-3.878-2.511-.998 0-2.053.237-3.166.483-1.137.253-2.315.515-3.452.515-.417 0-.802-.033-1.17-.106-.965-.189-1.873-.557-2.749-.917-1.227-.507-2.396-.981-3.714-.981-.22 0-.441.016-.662.04-2.094.27-3.861 1.596-5.563 2.872-.303.23-.613.458-.908.679-3.239 2.348-6.602 4.63-9.858 6.839-2.822 1.914-5.742 3.902-8.573 5.915-7.248 5.17-13.71 9.906-19.478 15.55l-.253-.196.294-.507c1.726-2.978 3.502-6.062 5.097-9.154 2.749-5.334 3.755-9.898 3.264-14.823-.082-.802-.172-1.603-.27-2.405-.074-.646-.147-1.3-.221-1.98.245-3.795.695-7.788 1.391-12.262.196-.442.401-.892.605-1.342a60.02 60.02 0 0 0 1.104-2.495c1.547-3.796.434-6.872-3.141-8.68-1.816-.916-3.992-1.235-6.094-1.538-1.26-.18-2.56-.376-3.755-.695-3.264-.875-6.618-2.192-9.972-3.918-.77-.401-1.612-.966-2.504-1.571C83.016 1.562 80.694 0 78.501 0c-.958 0-1.808.294-2.602.892-.957.72-1.456 1.75-1.996 2.847-.278.572-.572 1.17-.932 1.71-1.228 1.823-2.954 2.846-4.622 3.836-1.023.605-2.078 1.227-3.019 2.037-2.274 1.939-3.681 5.285-1.955 7.927l.049.204-.303.082-.123-.008-.065-.09c-2.094-1.603-4.687-2.52-7.133-2.52-1.4 0-2.692.295-3.853.884-3.264 1.644-4.164 5.587-4.958 9.064a46.22 46.22 0 0 1-.58 2.38c-.213.77-.5 1.596-.802 2.463-.483 1.415-.99 2.871-1.285 4.344l-.016.237-.033-.017-.008.041c-.327 1.767-.254 3.215.221 4.418.712 1.832 2.462 2.961 4.254 3.91l-.131.303a6.894 6.894 0 0 1-.72-.278c-2.765-1.227-4.794-3.477-6.765-5.645-1.162-1.284-2.364-2.61-3.698-3.706-1.783-1.456-3.247-2.167-4.474-2.167-.606 0-1.162.18-1.661.531l-.352.254.057-.246c-1.186 1.015-1.382 2.455-.646 4.622.474 1.391 1.063 2.757 1.628 4.083.794 1.848 1.611 3.754 2.143 5.767.278 1.071.491 2.2.68 3.6.204 1.578.318 3.19.425 4.752l.057.867v.041l.008.05c.033.515.074 1.03.123 1.553.016.156.04.303.057.459a23.46 23.46 0 0 1-.106-1.473l-.025-.523-.024-.933c-.017-.589-.033-1.17-.058-1.734l-.008-.09c-.049-.81-.114-1.685-.22-2.659l-.033-.286c-.123-1.154-.27-2.2-.434-3.19-.074-.459-.164-.925-.245-1.391l.057-.017c-.033-.057-.066-.122-.098-.18-.41-2.168-.851-3.894-1.383-5.431-.237-.671-.515-1.318-.777-1.94-.442-1.038-.867-2.02-1.096-3.075l.082-.017a8.35 8.35 0 0 1-.246-1.48c0-.295.025-.614.074-.933l.008-.082.074-.04c.49-.27 1.03-.401 1.595-.401 2.593 0 5.407 2.887 7.305 5.055l-.13.147c.236.172.474.352.71.532 0 0 .72.843.893 1.04l.417.474-.14.139c.475.4.942.81 1.391 1.227a25.4 25.4 0 0 0 1.694 1.603l.932.933.107-.123c.507.368.998.679 1.538.982.081.098.171.188.253.286l.09-.123.164.082.294.147c.27.123.548.23.876.36.122.098.237.205.36.311l.09-.155.122.04c1.007.352 2.045.712 2.896 1.416 1.383 1.137 1.996 2.92 2.446 4.68l-.237.097c.147.254.31.532.466.827.082.351.172.711.262 1.047.164.621.303 1.243.442 1.857l.073.327-.302.114c-1.465-2.773-3.428-5.57-5.964-8.491 1.734 2.225 3.199 4.401 4.369 6.2a575.151 575.151 0 0 0 1.677 3.06l.63 1.105.048.032.099.491-.303.115a5.204 5.204 0 0 0-.352-.573c-.09-.172-.188-.343-.278-.507l-.074.049c-.85-1.08-1.963-2.16-2.944-3.109-.434-.417-.835-.801-1.154-1.137-.352-.368-.704-.736-1.055-1.112-.23-.246-.467-.491-.696-.736.238.294.475.589.704.891.49.646.965 1.334 1.456 2.029.63.892 1.276 1.824 1.963 2.691l-.245.221c-.769-.76-1.57-1.178-2.536-1.3a5.39 5.39 0 0 0-.712-.05c-1.194 0-2.282.418-3.346 1.277l-.09.073-.106.09c-.474.41-.94.9-1.48 1.554l-.082.099c-.36.441-.72.9-1.121 1.423l-.188.245c-.417.54-.86 1.105-1.334 1.62l-.245.254-.066.082h-.016a8.28 8.28 0 0 1-1.3 1.12l-.172.123h.008l-.058.033-.106.073v-.016l-.13.074a4.659 4.659 0 0 1-1.751.58l-.115-.016-.057-.073a6.405 6.405 0 0 1-1.595-1.555 7.55 7.55 0 0 0 1.21 1.4l.254.302-.507-.017-.041-.04c-.23-.205-.458-.418-.696-.663-1.562-1.603-2.977-2.348-4.45-2.348-1.366 0-2.83.614-4.76 1.996-.778.556-1.539 1.12-2.308 1.685-1.423 1.056-2.896 2.144-4.393 3.125-2.331 1.522-4.826 2.275-7.468 3.068-.467.14-.941.278-1.408.425-5.178 1.612-8.867 4.401-10.953 8.295-1.734 3.232-2.184 7.731.703 10.496a6.832 6.832 0 0 0 1.89 1.284l.05.05.007-.009.09.041c1.056.458 2.25.687 3.649.687 2.086 0 4.295-.515 6.242-.965l.441-.098c1.187-.27 2.47-.425 3.722-.573 3.256-.384 6.627-.777 8.803-3.337 1.554-1.833 2.666-4.328 3.656-6.537l.32-.711c1.537-3.412 3.337-5.833 5.668-7.625a28.863 28.863 0 0 1 2.708-1.66c1.726-.81 3.526-1.227 5.342-1.227 3.69 0 7.592 1.677 11.625 5.014.94 1.178 2.266 2.626 4.147 3.444l.05.017.024.04c.605.941 1.268 1.751 2.02 2.471.459.442.99.867 1.563 1.268l.278.188-.319.098c-2.078.671-3.64 2.348-4.278 4.606-.99 3.477.63 5.923 2.846 8.753.827 1.056 1.784 2.103 2.945 3.248l.017.057.016-.049.188.172a47.695 47.695 0 0 0 2.937 2.536c3.395 4.826 4.377 10.315 5.416 16.124.18.998.36 1.996.548 2.994.081.433.163.875.245 1.333.45 2.471.965 5.268 2.02 7.494.516 1.088 1.318 2.126 2.463 3.19.172.155.335.303.507.442l.066.057-.008.09c-.802 8.516-.066 17.416.646 26.03.335 4.017.679 8.181.85 12.206.614 13.915.966 27.773 1.203 38.285.336 14.733.336 26.897.008 38.301l-.065 2.266c-.147 5.399-.303 10.978-.736 16.443-.189 2.429-.516 4.818-.827 7.125-.605 4.45-1.178 8.655-.875 13.228.025.393.294.638.458.744l-.22.254a.169.169 0 0 0-.09-.025c-.09 0-.197.082-.197.18 0 1.195.434 2.414 1.235 3.428l.05.065-.017.074c-.556 2.258-.286 4.827-.025 7.313.107 1.031.213 2.013.254 2.945.098 2.103.262 4.238.417 6.308.131 1.758.278 3.566.368 5.358.377 6.831.278 14.259-.286 23.388-.458 7.313-1.064 14.578-1.653 21.384l-.327-.008c-.122-13.236-.286-25.18-1.063-37.197-1.03-16.116-3.526-32.272-5.571-44.543-2.65-15.862-6.782-31.446-10.774-46.515-.024-.09-.13-.139-.22-.139-.123 0-.14.082-.14.115-.13.793-.253 1.579-.376 2.364l-.123.818h-.13l.048.548c-6.765 44.371.074 89.25 6.684 132.648 1.808 11.878 3.681 24.157 5.235 36.207.164 1.259.32 2.527.475 3.803-10.61 6.529-21.597 12.427-32.747 17.965a617.361 617.361 0 0 1-8.36 4.082c-.54.262-.066 1.063.474.802 12.05-5.776 23.953-11.87 35.48-18.636a260.896 260.896 0 0 0 5.284-3.182 466.212 466.212 0 0 1 1.8 18.815 850.664 850.664 0 0 0-.27 7.96l-.058 2.013c-.212 7.166-.433 14.585.483 21.547.147 1.088.442 2.184.736 3.231.14.499.278 1.007.401 1.546.147 5.432.614 10.455 1.423 15.404a113.937 113.937 0 0 0-.531 5.171.817.817 0 0 0 .212.621c.197.213.524.352.851.352.172 0 .753-.049.85-.671.95-5.775 1.923-11.51 3.093-18.349a234.226 234.226 0 0 1 6.905-25.678c2.83-8.574 6.045-17.171 9.154-25.475 1.947-5.211 3.967-10.602 5.865-15.927a235.238 235.238 0 0 0 5.538-17.801c6.422-6.021 12.402-12.516 17.678-19.568 7.641-10.201 14.39-21.817 17.736-34.194 2.217-8.197 2.961-17.458.253-25.548 5.203-1.685 10.365-3.518 15.494-5.301 16.173-5.637 32.346-11.265 48.511-16.909a24374.059 24374.059 0 0 0 48.715-17.057c3.951-1.39 7.886-2.806 11.821-4.213.507-.204.302-.99-.197-.818zm-135.134 31.373c4.663 3.075 7.69 7.354 9.473 12.172-4.458 1.424-8.949 2.724-13.506 3.788-4.041.941-8.131 1.693-12.246 2.168-.155-7.134-.556-14.439-1.219-22.112 6.054-.9 12.402.621 17.498 3.984zm-29.72 1.628a25.28 25.28 0 0 1 9.146-4.933 111.52 111.52 0 0 1-.139 2.756l.147.009c.009-.851.017-1.702.017-2.545l.327-.008c.368 5.097.646 10.234.818 15.298-.18 2.094-.376 4.18-.581 6.258-2.487.172-4.974.245-7.477.164-1.857-.058-3.755-.139-5.595-.426.09-.482.171-.965.261-1.448.859-4.548 1.866-9.677 3.076-15.125zm7.117-25.99.319.057-.049 1.481.254-.008c.082.752.164 1.505.254 2.282-.009.761-.025 1.53-.041 2.291l.294-.009c.393 3.772.745 7.527 1.047 11.159l.025 1.669v.13c-.008.385-.025.778-.041 1.162a24.83 24.83 0 0 0-8.156 3.845c-.246.18-.475.376-.712.564 1.767-7.853 3.984-16.287 6.806-24.623zm-14.65 40.363c-.917-1.784.146-4.107.907-5.759a24.14 24.14 0 0 1 2.274-3.902 23.416 23.416 0 0 1 1.89-2.332 448.236 448.236 0 0 0-2.544 13.85c-1.04-.336-2.013-.867-2.528-1.857zm-10.824 89.429c1.522-11.502 3.624-23.134 5.661-34.374.695-3.862 1.399-7.723 2.078-11.576.712-4.074 1.423-8.148 2.127-12.221 1.595-9.212 3.248-18.709 4.982-28.076.065.008.131.024.196.033 3.902.548 7.911.58 11.846.376.376-.016.744-.057 1.112-.074-2.609 26.963-6.634 53.018-11.992 77.863a274.04 274.04 0 0 1-2.266 1.898c2.323-11.38 4.343-21.941 6.119-31.986-1.947 10.782-4.066 21.482-6.177 32.035a182.291 182.291 0 0 1-3.69 2.969 852.327 852.327 0 0 0 1.62-6.602 539.782 539.782 0 0 0 6.193-29.368c-2.315 12.402-5.17 24.575-8 36.117a230.332 230.332 0 0 1-10.332 7.625c.147-1.555.319-3.109.523-4.639zm21.499-20.132a418.872 418.872 0 0 0 6.52-42.981l.327.025c-.442 7.174-1.137 14.12-2.07 20.631-1.022 7.126-2.479 14.447-4.458 22.399l-.319-.074zm-1.972 8.655c-.041.155-.09.311-.131.474-.311.279-.621.573-.941.851-.376.336-.768.655-1.153.99 5.898-25.425 9.669-50.736 11.232-75.482l.327.008c.041 3.952.016 7.617-.073 11.2-1.53 20.835-4.639 41.679-9.261 61.959zm-28.026.294.09-1.308.327.016-.066 1.415-.335-.041-.016-.082zm4.94-7.37c-.106 1.98-.228 3.951-.343 5.931h-.327l-.237-4.336.114-.041a.37.37 0 0 0 .205-.196c.024-.066.008-.131-.033-.205-.066-.106-.123-.204-.188-.311l-.156-.302-.04-.737.261.148a.351.351 0 0 0 .172.049.396.396 0 0 0 .286-.123l.303-.311-.016.434zm.05-.753-.311.057-.385-.858-.45-1.023-.016-.385c-.024-.539-.27-.981-.695-1.227l-.05-.024-.416-.925.27-.18 1.652 1.767a.322.322 0 0 0 .245.107c.033 0 .066 0 .098-.008l.213-.049-.155 2.748zm3.738-76.455c-.09.679-.171 1.366-.253 2.053l-.32.033a7.667 7.667 0 0 0-.858-1.882l-.172-.269.319.016c.065 0 .123.008.188.008.303 0 .606-.041.892-.131l.245-.073-.04.245zm-3.828-3.027c1.292.36 2.323 1.105 3.051 2.209l.131.204-.237.05a2.723 2.723 0 0 1-.507.049c-.18 0-.368-.017-.54-.058l-.058-.008-.032-.041a8.776 8.776 0 0 0-1.874-1.669c-.032-.016-.057-.032-.081-.032a.123.123 0 0 0-.107.073l-.245.385-.05-.458a16.518 16.518 0 0 0-.36-2.111l-.09-.352.32.164c.433.221.875.384 1.309.466l-.099.327c-.139 0-.27 0-.425-.008-.237 0-.36.18-.392.36-.017.172.04.385.286.45zm-.197 1.129a3.229 3.229 0 0 0 2.086 1.743l.058.016.032.049a7.264 7.264 0 0 1 1.22 2.601l.065.254-.262-.057c-1.652-.36-2.912-1.62-3.305-3.297l-.098-.033-.008-.106c-.025-.36-.058-.72-.098-1.08l.31-.09zm4.402-.72c-.082.507-.156 1.023-.23 1.538l-.073.507-.237-.45a5.762 5.762 0 0 0-1.17-1.538l-.344-.31.467.032c.425.025.85.041 1.276.041h.343l-.032.18zm.376-2.241c-.041.212-.18 1.071-.18 1.071l-.147-.016a18.71 18.71 0 0 0-1.424-.049h-.286l-.04-.327a4.83 4.83 0 0 0 .645-.197c.401-.155.802-.376 1.178-.654l.336-.245-.082.417zm45.925-82.967-.196.589c-1.734 5.333-4.303 10.332-7.42 14.455l-.278-.164c.794-1.816 1.53-3.697 2.242-5.522.58-1.48 1.178-3.018 1.808-4.515l.278-.671c.703-1.685 1.431-3.42 2.454-4.958 1.072-1.603 1.317-1.734 1.489-1.734l.131.025.049.065c.155.229-.033.843-.557 2.43zm-6.634-7.404a36.392 36.392 0 0 0-.36 3.166l-.041.614-.27-.556a18.905 18.905 0 0 0-1.26-2.168l-.024-.041v-.049c-.213-4.909 1.988-8.565 4.54-12.803l.548-.908c.728-1.219 1.432-2.462 2.135-3.697l.589-1.039.197.098c.13-.254.27-.499.4-.753l.303.107c-.262 1.284-.433 2.625-.613 3.926l-.131.982c-.647 2.519-1.293 4.982-2.07 7.411-.074.238-.155.467-.237.696l-.147.433-.123.262c-1.219 2.585-2.479 5.252-3.117 7.968l-.319-.041c.008-.254.033-.597.065-1.023a16.932 16.932 0 0 1-.065-2.585zm16.017-37.597c.115 1.006.14 1.922.074 2.846-.213.655-.376 1.26-.499 1.849l.237-.032-.057.229a9.898 9.898 0 0 1-.548 1.603c-.851 1.873-2.209 3.141-3.64 4.483-.336.311-.679.63-1.015.957a12.46 12.46 0 0 0-1.759 2.143c-1.243 1.219-1.906 2.381-2.012 3.551l-.008.049-.025.033c-.433.58-.875 1.153-1.309 1.734-2.748 3.624-5.595 7.362-7.493 11.461a16.414 16.414 0 0 0-1.072 2.969l-.319-.032c-.441-7.298 4.753-13.335 9.784-19.167 3.976-4.606 8.083-9.375 9.334-14.709l.327.033zm-.589-5.629-.163-.834.319-.074.131.532.041.336-.328.04zm1.007 7.895c.008-.229.008-.45.008-.679l.016-.09.033-.098.319.057c0 .172-.008.352-.008.523l-.008.213-.049.139-.311-.065zm.311.99a18.295 18.295 0 0 1-1.596 6.143l-.016.041-.033.025a82.57 82.57 0 0 1-1.775 1.21c-.352.238-.712.475-1.072.72l-.212-.245.172-.18c.965-1.015 1.963-2.07 2.691-3.248.793-1.284 1.268-2.716 1.448-4.376l.033-.09.049-.082.311.082zm0-2.226-.32-.049c-.04-.973-.163-2.02-.376-3.345.008-.123.017-.246.017-.369l.327-.016c.221 1.309.352 2.495.392 3.624l-.04.155zm-15.347 49.01-.09.245-.319-.065.008-.278.09-.45.311.548zm-.041-2.88.082-.057a28.405 28.405 0 0 0 1.579-1.202l.245.212a19.226 19.226 0 0 0-1.309 2.553l-.188.441-.123-.458c-.114-.45-.204-.908-.27-1.374l-.016-.115zm22.218-62.777c1.276-1.562 3.641-2.618 5.359-3.387l.703-.311c.491-.22 1.047-.466 1.595-.76l.139.155.295-.409.352-.229.081.164c.049.098.09.188.148.36l-.033.409-.074.916c-.082.474-.204.981-.401 1.603a6.187 6.187 0 0 1-.359.581l.155.074c-1.178 3.305-3.534 6.102-5.808 8.802-.377.442-.745.883-1.113 1.333l-.376.458.09-.589c.18-1.161.229-2.396.147-3.673l-.024-.311c-.123-1.546-.418-3.198-.9-5.039l-.025-.082.049-.065zm-.466 14.283c1.301-1.44 2.471-2.748 3.616-4.131l.155-.188c1.653-2.004 2.872-3.73 3.829-5.416l.302.115c-1.488 7.731-4.033 15.232-7.796 22.946l-.057-.024a4.972 4.972 0 0 0-.09.327 115.053 115.053 0 0 1-2.07 4.033l-.728 1.342c-2.601 4.793-5.284 9.751-8.442 14.365-1.301 1.906-2.716 3.746-4.041 5.456l-.18-.123c-.475.737-.965 1.481-1.456 2.217-1.522 1.947-3.133 4.041-4.581 6.177l-.303.441v-.531c.016-3.747 1.824-7.297 3.575-10.733 1.521-2.978 3.092-6.062 3.509-9.285.164-1.276.058-2.651-.041-3.976l-.024-.27.065-.057c.017-.008.066-.057.058-.106-.851-4.459 2.912-7.69 5.939-10.283l.073-.058.09-.057h.066l.09-.155.016-.017c.442-.376.859-.744 1.252-1.104 1.791-1.644 2.863-3.739 3.902-5.751.924-1.767 1.857-3.583 3.272-5.154zm-8.622-15.224c1.415-1.75 2.495-2.838 3.288-3.321l.507-.311-.278.524c-.916 1.742-.752 3.534-.343 5.399-.246-2.176-.172-4.23.834-5.817l.057-.081.099.008c.45.041.703.433.752 1.153.033.409.123.818.237 1.178.369.655.671 1.44.949 2.487l-.286.098c.262.843.409 1.669.475 2.487a42.563 42.563 0 0 1-.025-.368l.327-.041.09.442c.139.736.278 1.423.434 2.061l.139.598c.057.531.082 1.071.098 1.611l.245-.024c.328 1.709.499 3.345.499 5.072-.736 1.374-1.3 2.863-1.84 4.311-.843 2.249-1.718 4.573-3.272 6.495-.279.352-.655.712-1.137 1.121l-.246-.205a83.07 83.07 0 0 0 1.947-3.534 89.15 89.15 0 0 1-1.309 2.315l-.041.082a20.38 20.38 0 0 0-.409.753l-.302-.131c.507-1.595.785-3.338.859-5.391a22.235 22.235 0 0 0 1.382-3.804c-.229.753-.704 1.963-1.08 2.855l-.311-.065v-.851l.148-.377-.189-.032a40.297 40.297 0 0 0-.417-3.911c-.18-1.178-.401-2.356-.613-3.525-.311-1.702-.638-3.461-.851-5.22-.033-.286-.106-.654-.18-1.055-.213-1.047-.442-2.233-.237-2.986zm-14.267 17.883c.466-.663.924-1.317 1.366-1.939 3.207-4.597 4.949-9.072 6.037-15.42l.074-.417.049-.27c.065-.139.139-.278.204-.418l-.13-.049c1.006-5.726 2.38-11.616 7.174-15.191l.245.205c-1.243 2.487-2.069 5.219-2.446 8.123l.025.114-.131.009a48.022 48.022 0 0 0-1.399 1.791c.237-.196.491-.376.769-.532l.213-.122c.033-.098.057-.205.09-.311l.319.057c-.262 2.822-.115 5.808.433 8.884.164.933.368 1.923.655 3.199l.024.106-.081.066a63.484 63.484 0 0 0-4.418 3.615c.344-.294.687-.58 1.031-.859 1.873-1.505 2.421-1.816 2.658-1.816l.172.033.049.082c.131.237-.155.712-1.006 2.045-.245.384-.515.81-.785 1.252-1.162 1.906-2.446 3.82-3.812 5.824 2.151-2.994 4.319-6.078 6.102-9.334l.205-.376.483 2.086c.441 1.898.899 3.861 1.259 5.808l.033.196v.025c-.818 6.152-5.26 11.125-9.563 15.936-5.514 6.168-11.215 12.549-9.588 21.572l.058.36-.008.139-.311.057-.189-.434c-.081-.302-.163-.621-.245-.908l-.139.058c-1.17-2.61-2.487-5.571-2.757-8.729-.433-5.08.933-10.725 4.172-17.253a49.65 49.65 0 0 1 3.043-5.293 52.561 52.561 0 0 0-4.867 9.015c-2.52 6.038-4.54 14.635-2.65 20.697l.106.336-.327-.14a3.065 3.065 0 0 0-.45-.163l-.058-.017-.032-.049c-6.618-10.438 2.028-22.701 8.344-31.65zm-11.387 34.62.147-.188.123.204c.286.467.531.941.752 1.424-.213-.638-.417-1.105-.54-1.17l.025.008.041-.008-.148-.213-.22-.253.098-.107c.351-.392.72-.711 1.129-.973l.057-.033.065.016c3.739.794 7.166 7.985 7.314 8.295 1.096 2.324 2.871 6.848 2.421 11.052-.008.066-.049.344-.049.344l-.041.131c-.556 1.93-1.121 3.926-1.898 5.898a19.385 19.385 0 0 1-2.372 3.485l-.245.245c-.36.368-.72.728-1.097 1.072-1.284 1.17-2.806 2.168-4.368 3.166l-.213-.246c4.131-4.859 5.964-11.199 5.457-17.481.114 1.726.049 3.46-.197 5.186-.711 4.982-2.969 9.563-6.749 13.637-.253.164-.499.327-.785.515l-.344.156.115-.352c.155-.483.262-.924.327-1.358.147-1.08.131-2.184-.049-3.632l.237-1.145c.557-2.733 1.129-5.514 1.669-8.312a8485.2 8485.2 0 0 1-1.726 8.549l-.319-.008c-.074-.458-.164-.908-.245-1.366-.139-.745-.279-1.489-.385-2.25-.54-3.861-.638-8.156-.286-13.13.033-.474.057-.998.09-1.554.147-3.043.352-7.166 2.209-9.604zm-2.381 4.213.311.098-.041.229c-.025.156-.115.794-.115.794l-.09.507-.229-.45-.13.196-.279-.163c.189-.409.385-.818.573-1.211zm-1.513 3.182c.36-.638.466-.802.63-.802l.098.017.049.057c.09.106.114.295-.066 1.563.18-.819.36-1.628.548-2.438l.319.057c-.679 4.777-.842 9.547-.875 15.232l-.008.957c-.008 2.307-.025 4.688-.172 7.027-.188 3.019-1.137 5.056-2.331 7.641l-.311.663-.106-.475c-.18-.842-.483-1.701-.786-2.569l.025-.31-.147.016c-.27-.744-.5-1.407-.63-1.98-1.367-6.053-1.154-12.172.605-17.711 1.202-2.666 2.225-4.941 3.158-6.945zm-2.913 31.013v.261l-.008.254-.123.024a1.092 1.092 0 0 0-.261.099l-.426.237.401-.884.033-.171.155.081c-.049 0-.09.041-.09.082l.319.017zm-4.131-7.682c-.941-4.859.712-9.162 2.479-13.146l.311.106a35.033 35.033 0 0 0-.614 3.142 32.197 32.197 0 0 0-.163 8.115c.073.646.384 1.734.744 2.994.499 1.75 1.072 3.73 1.284 5.456l-.008.139-.033.107-.098.032-.311.295-.351.262.171.278c-.057.041-.122.09-.196.155l-.172.172-.098-.221c-1.08-2.528-2.838-7.322-2.945-7.886zm-15.175 42.236c.099-.384.213-.769.36-1.211l.188-.237c2.414-3.01 4.696-6.487 7.2-10.945 3.419-6.103 6.699-12.533 9.734-19.102l.237-.507.074.548c.106.769.638 1.505 1.538 2.135l.164.115-.148.139c-4.106 3.918-6.978 9.923-9.522 15.224-.425.883-.834 1.742-1.235 2.56a146.835 146.835 0 0 0-3.55 7.739c-2.152 3.861-4.197 7.657-5.539 11.584l-.319-.041c-.204-2.479.033-4.95.786-7.829.016-.033.024-.057.032-.172zm-.58-.065.147.253a.19.19 0 0 0 .098.082l.147.057-.049.148c-.164.515-.286.981-.384 1.415l-.017.057h.008l-.049.254a19.715 19.715 0 0 0-.286 5.521c0 .025.025.115.04.23l-.31.09-.139-.369a14.758 14.758 0 0 1-.393-1.153c.131.941.41 1.881.81 2.79l.025.057-.017.057c-.147.499-.286.998-.409 1.497l-.114.483-.188-.458c-.54-1.277-.941-2.553-1.236-3.526-.049-.156-.098-.483-.171-.9l-.041-.27c.065-.81.196-1.554.392-2.266.148-.54.352-1.088.638-1.702l.041-.09.098-.008.221-.024.336-.041c.172-.025.335-.066.507-.106h.016c-.065.008-.368.024-.368.024l-.245.025v-.009l-.221.017-.31.016.163-.262c.18-.286.368-.564.564-.85l.164.09c.123-.287.253-.573.4-.859l.132-.27zm-1.244-152.207c-.082.45-.147.94-.196 1.546-.066.826-.09 1.636-.115 2.388l-.008.254-.769-.36c-.76-.36-1.914-.908-3.199-1.464-3.574-2.004-6.495-4.737-8.695-8.107l-.156-.237c-.507-.769-1.284-1.923-.883-2.675.229-.434.785-.647 1.693-.647.098 0 .294.009.294.009l.14.008.343.032c.123.009.246.025.385.041.54.074 1.374.884 2.037 1.53.253.246.474.458.63.581l.498.401c1.571 1.26 3.15 2.528 4.729 3.779l.352.287c.548.449 1.987 1.66 2.143 1.734l-.098.033.204.253a.328.328 0 0 1-.22.074c.261.122.523.245.793.36l.123.049-.025.131zm.507-1.596a5.968 5.968 0 0 0-.384 1.048l-.066.245-.859-.704c-1.668-1.358-3.33-2.715-5.006-4.057a26.915 26.915 0 0 1-1.497-1.334l.18-.269c1.358.654 2.871.965 4.327 1.268 1.023.212 2.07.425 3.068.76l.237.082-.172.188c-.22.238-.368.54-.417.851l-.04.245-.532-.343a9.781 9.781 0 0 0-.655-.409c-.532-.311-1.055-.556-1.611-.818l-.074-.041.09.074c.425.351.818.687 1.276 1.006.221.147.45.294.68.441.31.197.629.393.973.671.016.033.04.058.114.148l.033.04v.058c.008.18.024.327.065.45.025.073.09.147.18.18l.164.065-.074.155zm1.702-1.848a4.004 4.004 0 0 0-.851.654l-.393.385.123-.54c.066-.295.115-.598.164-.892l.065-.384.197.098c.245.114.482.245.72.392l.237.156-.262.131zm22.112-56.61c.466-.106.965-.229 1.472-.36 1.497-.384 3.191-.81 4.745-.81.695 0 1.301.082 1.857.254 2.086.63 3.158 2.397 4.025 3.812l-.082.082c.074.041.139.09.213.14.376.613.76 1.25 1.194 1.815.041.058.393.483.393.483h.008l.033.04c.147.164.302.32.507.524.237.622.695 1.047 1.399 1.317l-.09.311c-2.127-.425-4.238-.883-6.357-1.333l-2.527-.54a64.202 64.202 0 0 1-3.125-.777c-2.651-.704-5.391-1.424-8.001-1.424-.286 0-.573.009-.859.025l-.065-.32c1.399-.523 2.945-.776 4.72-.776.638 0 1.301.032 2.02.098 2.553.229 5.056.933 7.469 1.612.197.057.385.106.581.163-.098-.025-.188-.057-.286-.082-3.42-1.006-7.289-2.151-10.758-2.151h-.008l-.016-.123c-.172.041-.352.09-.524.131-2.184.082-3.959.638-5.481 1.742l-.131.05-.147-.287.671-.466a180.64 180.64 0 0 0 1.996-1.399c1.546-.753 3.231-1.325 5.154-1.75zm13.898-10.323-.458.147-.147-.287.311-.212.057-.074.098.074.36-.131.131.294-.352.189zm-1.251-7.878c3.158-2.16 6.25-4.148 9.187-5.89 1.628-.966 3.002-1.767 4.417-2.495.213-.107.442-.238.679-.36.965-.524 2.053-1.121 3.043-1.252.327-.04.638-.065.933-.065.327 0 .63.024.932.073l.213.041h.213l-.017.033.058.008-.033.016c.793.213 1.407.59 2.053.99l.238.14c.49.302.924.547 1.439.76.434.18.876.311 1.334.401l.016.319c-7.649 2.217-14.275 7.232-20.688 12.075a294.85 294.85 0 0 1-3.297 2.47 45.294 45.294 0 0 0-4.549 2.642c-1.742.818-3.411 1.694-5.292 2.692-.197.049-.393.098-.589.155l-.148-.286c9.351-7.796 18.938-14.333 29.221-19.944a139.642 139.642 0 0 0-15.715 9.244l-.073-.099c-1.121.827-2.242 1.661-3.362 2.504a131.897 131.897 0 0 0-4.958 3.763 288.68 288.68 0 0 0-3.738 2.92l.09.107c-.835.711-1.661 1.44-2.52 2.2a19.64 19.64 0 0 0-.613.262l-.058-.098c-.122.098-.253.204-.384.303a13.979 13.979 0 0 0-2.937 1.971c-3.788 1.971-6.954 3.87-9.678 5.808l-.09-.114c-.245.229-.49.45-.736.679l-.229-.238c8.287-8.491 16.68-15.6 25.638-21.735zm-26.21 25.907.22.238-.212.237c-.115.13-.238.27-.369.4-.63.573-1.472 1.31-2.437 1.94-.9.319-1.825.744-2.757 1.26l-.14.04-.048-.139-.074.164-.065.106-.066.041-.106.025-.057-.009-.434-.114.434-.221.49-.254c1.996-1.063 3.87-2.421 5.62-3.714zm-10.962 7.731-.279-.245.368-.041a9.305 9.305 0 0 1 2.135.008l.05.008.032.033c3.174 2.577 6.831 5.105 10.881 7.501-.246-.188-.499-.409-.745-.63a8.045 8.045 0 0 0-.671-.564 94.27 94.27 0 0 0-2.388-1.644l-.835-.565c-.433-.294-.867-.597-1.309-.891-1.497-1.031-3.043-2.087-4.614-3.027l-.22-.131.22-.147a.62.62 0 0 0 .197-.213l.04-.074.025-.073a.653.653 0 0 0 .025-.303l-.025-.123.107-.057c.605-.327 1.153-.499 1.644-.499.687 0 1.26.32 1.677.933l4.098 3.665c.238.212.516.433.794.67.613.5 1.251 1.015 1.628 1.514 1.104.589 1.121 1.366.949 1.914l-.082.262-.008-.008-.123.253-.016-.008-.074.114c-.164.262-.344.491-.548.712l-.074.082-.106-.04a13.103 13.103 0 0 1-1.898-.917 75.835 75.835 0 0 1-10.66-7.06l-.065-.049.009-.082a.5.5 0 0 0-.14-.278zm-2.806-1.579-.05.033-.065-.041-.049-.025-.024-.049c-.205-.351-.68-1.153-.761-1.3.09.229.18.458.286.679l.123.261.016.009.025.04.171.295.107.172-.197.065c-.482.172-.973.385-1.497.655l-.057.032-.065-.016a17.912 17.912 0 0 1-4.941-2.217c.605.417 1.243.802 1.906 1.137.122.058.27.148.441.237l.172.09-.106.303-.131-.024c-.31-.058-.622-.115-.924-.189-3.363-.834-6.708-2.176-9.94-3.975l-.106-.058.024-.114a12.908 12.908 0 0 1 2.152-4.982l.196-.27c.115-.155.237-.303.36-.458l.115-.14a12.01 12.01 0 0 1 3.935-3.042l.106-.05.483-.228.081.106c.434.58.86 1.153 1.301 1.726l.033.074-.172.106c.098.123.196.254.294.384l.205.279c.63 1.317 1.587 2.65 3.043 4.213.32.433.638.867.99 1.308.008.009.008.017.016.033l.156-.139a38.628 38.628 0 0 0 2.659 2.397l-.197.262c-.18-.131-.352-.254-.515-.368 1.35 1.129 2.773 1.824 4.368 2.151l.123.066-.286-.221-.123-.123.13-.114.23-.18.04.286.033.384.05.36-.23-.04a7.344 7.344 0 0 0-1.464-.14 7.473 7.473 0 0 0-2.47.36zm1.824 2.34-.524.605-.073-.319c-.05-.204-.099-.417-.148-.622l-.008-.114s.172-.147.238-.196l.139-.131.122.114.033.017.008.057c.033.082.18.417.18.417l.008.05v.032l.025.09zm-4.14-31.691.041-.009.041.008c.524.14.99.385 1.44.77.401.343.736.76 1.064 1.161.351.434.72.892 1.17 1.252.343.27.72.515 1.096.752.556.352 1.12.72 1.595 1.195 1.824 1.865 1.014 3.984-.393 5.366-.67.41-1.415.76-2.225 1.047h-.115l.082.017c-1.513.54-3.174.867-4.777 1.178-1.66.327-3.379.662-4.925 1.235-3.46 1.292-6.315 3.73-8.025 6.855l-.303-.13c.401-1.252.86-2.48 1.268-3.576.246-.556.5-1.104.753-1.636a98.22 98.22 0 0 0 .802-1.726c2.438-5.3 5.783-12.565 11.411-13.76zm-3.664.736c-.09.008-.172.008-.262.008h-.131l-.016-.327c.171-.025.343-.058.507-.09l.057.335-.114.074h-.041zm8.008 21.04c.025 1.006.074 1.98.32 2.912v.344l.016.327-.27-.188a1.636 1.636 0 0 1-.303-.262c-.057-.098-.106-.196-.155-.294l-.278-.099a2.527 2.527 0 0 1-.368-.171l-.099-.057c-.319-.246-.638-.491-.965-.753a2.914 2.914 0 0 1-.458-.696l-.196.156c-.205-.18-.401-.36-.573-.532-.352-.36-.695-.744-1.055-1.178l-.156-.319c-.818-2.151-.965-4.327-.417-6.299l.106-.36.524-.163a28.77 28.77 0 0 0 1.734-.59l.327-.122-.04.106.188-.163c.343-.14.687-.287 1.022-.442l.106-.05v-.007l.074-.033c.45-.221.9-.475 1.415-.794.328-.081.655-.171.966-.278l.253-.09c.663-.253 1.203-.564 1.636-.949l.385-.335-.123.499a52.264 52.264 0 0 1-1.579 5.342c-.18.499-.392 1.022-.605 1.57-.196.491-.4.998-.589 1.514l-.32-.057v-.082c.034-1.8.246-3.632.647-5.563-.842 2.961-1.235 5.694-1.17 8.156zm-5.448-3.739-.319.066a37.9 37.9 0 0 1-1.03-3.043l-.05-.156 1.93-.58-.09.294a9.87 9.87 0 0 0-.44 3.42zm-1.202-1.938c.433.998.801 2.02 1.153 3.01l.23.638-.279.156c-.213-.262-.434-.532-.67-.835-.27-.67-.45-1.366-.623-2.045-.114-.45-.229-.908-.376-1.35l.295-.13c.073.13.163.302.27.556zM69.919 73.968l.033-.36.246.262c2.396 2.552 5.44 4.311 8.794 5.088l-.033.32c-.115 0-.221.008-.336.008-3.166 0-6.127-1.137-8.5-3.256l.09.123c.115.155.23.302.344.45l.05.032.008-.155c.122.172 1.513 1.12 1.685 1.227 2.029 1.276 4.32 1.922 6.806 1.922.393 0 .794-.016 1.186-.049l.5-.04-.385.326c-.336.295-.671.59-1.006.892l-.557.5-.073-.009a11.725 11.725 0 0 1-2.74-.556l-.075.319c-1.26-.106-3.043-.295-4.122-.647a8.004 8.004 0 0 1-1.44-1.783 10.785 10.785 0 0 1-.491-2.315l-.057-.597.016.016c-.016-.556 0-1.137.057-1.718zm3.722 8.909.393.245.286.246-.515.073-.057-.04a5.605 5.605 0 0 1-.246-.213l-.057-.05.196-.261zm.148-1.137.098-.311c1.014.114 2.061.164 3.109.164.351 0 .695-.009 1.047-.017l.482-.016-.368.303a14.6 14.6 0 0 1-1.505 1.104l-.14.09-.081-.147a.55.55 0 0 0-.31-.254c-.835-.229-1.612-.54-2.332-.916zm2.487 2.143.024-.057.057-.025c1.146-.589 2.266-1.268 3.453-1.996l.695-.4.155-.017.213-.09-.033-.123.107-.065c.278-.164.556-.335.842-.49l.205.253c-1.84 1.988-4.025 2.97-5.727 3.6l-.18-.263c.074-.09.131-.188.189-.327zm5.39-5.006-.049.04-.065-.008c-4.287-.433-7.943-2.127-10.864-5.022l.188-.262c4.017 2.078 8.075 3.444 12.067 4.05l.45.065-.385.237a15.4 15.4 0 0 0-1.341.9zM92.605 71.8c1.022-1.907 2.413-3.665 3.632-5.154l.286.147c-.114.376-.212.76-.343 1.219a65.487 65.487 0 0 0-3.297 3.96l-.278-.172zm16.86-50.384-.319-.066.262-1.546.327.05a14.55 14.55 0 0 1-.27 1.562zm-5.375-9.514c1.309.114 2.79.245 3.878.9 1.579.94 1.849 3.542 1.857 5.063-1.432 4.107-2.364 8.557-2.798 13.245l-.033.335a65.912 65.912 0 0 0-.212 7.338c-.098 2.348-.311 5.448-1.088 8.549-.467 1.865-1.252 3.82-2.454 6.135l-.311-.098c.163-1.424.327-2.839.491-4.238-.017.098-.041.197-.058.295-.212 1.055-.474 2.356-.597 3.444l-.327-.008a68.707 68.707 0 0 0-.319-3.706 82.51 82.51 0 0 1-.025-2.045l-.196.008c-.278-2.634-.515-5.457-.115-8.393.148-1.08.377-2.16.589-3.199l.09-.45.319.05a120.048 120.048 0 0 0-.359 4.482c.384-4.54 1.038-8.819 1.701-12.655.859-4.998 1.522-10.267-.564-14.848l-.115-.253.646.049zm-35.495-.491c.286-.197.58-.393.875-.59 1.17-.776 2.373-1.57 3.232-2.658.687-.867 1.055-1.8 1.44-2.79l.22-.564c.827-2.045 2.618-3.272 4.786-3.272 1.194 0 2.438.368 3.575 1.072.45.27.85.613 1.235.957l.008-.008c.27.229.532.474.794.711.392.36.802.736 1.219 1.072l.335.253.008.066c.197 1.088.377 2.119.524 3.125-.016-1.824-.205-2.045-.213-2.062l-.057-.319.065-.008-.147-.278.246-.204a29.079 29.079 0 0 0 4.106 2.544l.082.04v.009l.172.082a31.61 31.61 0 0 0 5.808 2.184c.392.106.785.188 1.186.278l.115.024v.009l.261.049c1.031.204 2.062.351 2.945.466l1.735.22.032.099c1.972 5.816 1.178 11.453.336 17.425l-.09.621-.327-.016c-.041-1.227-.262-2.332-.679-3.37a9.973 9.973 0 0 0-.794-1.538l-.033-.058v-.008l-.106-.155c-.802-1.22-1.832-2.152-3.06-2.773l-.098-.05v-.008a7.578 7.578 0 0 0-2.225-.703c-.785-.123-1.603-.131-2.397-.14-1.243-.008-2.52-.024-3.706-.474l-.139-.049.025-.09-.082.033-.262-.115v.008l-.261-.147a4.935 4.935 0 0 1-.573-.376c-.916-.704-1.595-1.652-2.25-2.569l-.106-.155-.025-.131v-.008c-.024-.05-.04-.107-.065-.172l.008.188-.319-.425c-.36-.483-.646-.827-.94-1.137-1.735-1.808-4.385-2.888-7.077-2.888-.384 0-.76.025-1.137.065-2.56.295-4.393 1.702-6.332 3.19-.556.434-1.129.868-1.718 1.277-1.66 1.162-3.329 1.718-4.883 2.151l-.156.041-.04-.155c-.917-3.305 2.372-6.037 4.924-7.796zM49.46 23.69c.793-1.66 1.62-2.765 2.65-3.542l.237-.172c.86-.59 1.858-.957 3.035-1.113l.041-.008v-.008l.189-.025c.294-.032.588-.049.891-.049 1.186 0 2.389.238 3.55.467.565.114 1.13.22 1.694.31l.016.32s-.523.139-.744.196c-1.628.45-3.452 1.039-4.442 2.34a4 4 0 0 0-.393.646l-.13-.033c0 .106 0 .204-.009.31-.417.925-.564 1.98-.425 3.06.082-.818.662-1.587 1.734-2.306l.27-.172c.433-.27.94-.532 1.513-.786l.377-.171v.008c.392-.164.801-.328 1.227-.475l.212-.081a57.777 57.777 0 0 1 2.111-.696l.27-.082.196-.057 2.193-.646c.744-.221 1.554-.483 1.971-.712.99-.54 1.62-1.21 2.266-2.037 0 0 .327-.433.45-.605.336-.458.687-.933 1.113-1.415a2.49 2.49 0 0 1 .204-.213l.311-.32c1.702-1.684 3.73-2.543 6.037-2.543h.23a8.685 8.685 0 0 1 1.987.278l.09.024s.156.5.213.704c.024-.008.057-.008.098-.008.09 0 .205.024.27.065a7.281 7.281 0 0 0-.36-.352l.164-.278a8.39 8.39 0 0 1 4.425 3.305c.385.565.704 1.178 1.023 1.767.27.516.556 1.047.892 1.587.049.164.09.336.139.5l.155-.083c.106.148.221.295.376.483.009.008.009.025.017.033l.024-.017c1.358 1.53 3.166 1.776 4.745 1.882l.09.008.04.082c.124.237.246.483.36.728-.056-.196-.236-.802-.236-.802l.589.033c1.963.098 3.992.204 5.562 1.759 3.911 3.861 3.068 10.798 2.61 14.528-.27 2.185-.057 4.475.139 6.692.27 2.986.548 6.07-.319 8.95-.957 3.174-3.33 5.955-5.612 8.655l-.163.188-.115-.074c-.082.164-.155.327-.237.491-.77.908-1.587 1.89-2.34 2.912l-.278-.171c.09-.18.18-.369.262-.54.9-2.021 1.538-3.723 1.996-5.359 1.022-3.64 1.775-7.51 2.233-11.493.066-.557.123-1.113.172-1.661a48.88 48.88 0 0 1-.835 5.146c-.564 2.626-1.39 5.333-2.593 8.524l-.31-.107.163-.572c.777-2.749 1.374-5.236 1.808-7.56-.074.32-.147.639-.221.95-1.055 4.344-2.986 8.082-5.04 12.05-.36.695-.72 1.399-1.079 2.11-.254.5-.466.99-.638 1.456l-.32-.057c-.024-1.489.5-2.912 1.048-4.417.098-.278.204-.557.303-.843a57.62 57.62 0 0 0 1.914-6.667l.024-.106.058-.172a.39.39 0 0 1 .082-.082c.024-.024.049-.049.073-.082 1.072-1.415 1.26-2.732.597-4.04l-.024-.05v-.025l-.205-.319c-.433-.679-1.104-1.358-2.037-2.094l-.065-.049c-.72-.556-1.489-1.063-2.225-1.554l-.516-.344-.294-.196c-.32-.213-.614-.425-.875-.622l-.344-.245c-.998-.687-1.849-.974-2.937-.974-.237 0-.49.017-.76.041-.45.05-.9.172-1.342.286-.368.099-.753.205-1.154.262l-1.521.131-1.268-1.521-.09-.115c-.328-.703-.565-1.505-.81-2.356-.548-1.865-1.113-3.796-2.724-4.5l-.074-.032v-.016l-.343-.099a3.695 3.695 0 0 0-1.056-.139c-1.03 0-2.07.36-3.076.704l-.212.065-.098.017-.262.049c-.344.065-.687.13-1.023.196l-.114.017-.058-.082a9.209 9.209 0 0 1-2.593-3.354c.197.458.426.908.68 1.333.09.147.187.286.285.434.14.196.279.392.385.605.229.458.286.712.196.867a.272.272 0 0 1-.229.123c-.482 0-1.8-1.317-2.11-2.004-.5-1.105-.647-2.455-.786-3.755a21.806 21.806 0 0 0-.204-1.579l-.565-3.346c.254 1.857.508 3.722.777 5.58l.017.097c.196 1.383.499 3.469 1.399 4.606l-.213.246c-1.186-.688-1.963-2.046-2.307-4.074v-.156c0-.13.008-.262.017-.409.024-.376.065-.76.098-1.145.163-1.685.335-3.436-.663-4.933a3.893 3.893 0 0 0-1.857-1.489l-.082-.033v-.008l-.057-.016a.927.927 0 0 0-.204-.05l-.18-.04a4.008 4.008 0 0 0-2.151.106c-.116.041-.214.082-.32.131l-.286.123-.033.016c-.23.107-.434.221-.63.352l-.213.139c-1.873 1.366-2.306 3.902-1.292 7.542l-.311.099c-.368-1.047-.76-2.078-1.145-3.117-1.088-2.88-2.21-5.85-2.814-8.958l-.009-.057.017-.05zm5.325 24.19a5.1 5.1 0 0 0-.834-.933l-.041-.04-.008-.058a7.774 7.774 0 0 0-.123-.63.618.618 0 0 1-.319.082c-.286 0-.597-.172-.924-.45l-.189.139a23.767 23.767 0 0 0-2.02-1.055c-2.02-.982-4.115-1.988-5.064-4.704-.31-.884-.442-1.857-.4-2.978l.016-.417.008.008c.163-2.331 1.063-4.802 1.726-6.462l.074.008c0-.041.016-.082.024-.107l.098-.114h.099l.073.008.033.008c.916.368 1.636 1.669 2.274 2.822l.286.516c2.356 4.147 4.148 8.794 5.498 14.21l-.287.147zm1.137 2.356-.024-.066v-.016C54.4 39.864 51.562 33.017 47.21 29.22l-.09-.082.05-.106c.204-.475.4-.941.605-1.4.343-.784.662-1.537.949-2.232.147-.36.294-.712.441-1.056l.23-.515.081.556c.425 2.814 1.39 5.342 2.422 8.009a87.107 87.107 0 0 1 1.35 3.681c1.717 5.13 2.544 10.529 3.018 14.144l-.344.017zm-1.521-11.314c-.074-.254-.156-.499-.23-.753l-.106-.343.311-.107c.066.18.14.352.205.524 2.143 5.227 3.15 10.806 3.264 18.087l-.327.033a54.027 54.027 0 0 0-.761-3.321 64.245 64.245 0 0 0-2.356-14.12zm-15.944 26.62h.368l.05.081c.105.14.22.27.326.393l-.204.254a6.37 6.37 0 0 1-.646-.434l-.41-.31.516.015zm-26.849 8.45c.827-.18 1.67-.303 2.487-.417 1.473-.213 2.872-.41 4.254-.957a19.64 19.64 0 0 0 1.587-.72c3.763-.45 7.305-.753 10.823-.933l.041.327c-5.088.916-10.676 2.634-17.09 5.236-4.433 1.8-12.172 6.078-13.039 10.66l-.319-.01C-.45 81.045 5.653 75.31 11.608 73.994zm20.386 1.84c-.049.033-.09.066-.13.099l.36-.262.204.254c-2.102 1.963-4.025 4.352-5.874 6.667-1.62 2.028-3.288 4.098-5.088 5.898 2.38-2.094 4.524-4.5 6.61-6.84l.679-.76a76.013 76.013 0 0 1 1.734-1.857l.245.221a20.145 20.145 0 0 0-1.89 2.7c-.376.654-.71 1.374-1.038 2.07-.704 1.505-1.432 3.059-2.659 4.204-1.382 1.284-3.321 1.612-5.203 1.922l-.081-.18c-.082.074-.287.238-.287.238l-.04.008c-.794.13-1.629.286-2.39.532-.4.13-.826.278-1.267.425-2.643.9-5.94 2.02-8.852 2.02-.924 0-1.767-.114-2.503-.343l-.303-.098 1.268-.965c-.016-.017-.04-.033-.057-.05-.139-.139-.204-.433-.213-.924-.237-.319-.343-.622-.319-.883-.605.728-.973 1.546-.883 2.47l.024.286-.261-.122a5.303 5.303 0 0 1-1.947-1.538v.016l-.197-.278c-.433-.614-.777-1.358-1.03-2.266-.058-4 5.104-7.665 7.33-9.048 3.623-2.257 7.616-3.632 11.051-4.679 1.75-.532 3.616-.99 5.71-1.407l.05.196c.817-.229 1.676-.45 2.568-.67 2.585-.426 5.22-.761 7.78-1.08l.572-.074.082.311c-3.313 1.333-6.479 3.403-9.547 5.4-1.57 1.022-3.075 2.003-4.548 2.862.401-.212.794-.433 1.195-.654 1.284-.72 2.56-1.497 3.803-2.242 1.85-1.112 3.755-2.266 5.702-3.272a30.693 30.693 0 0 1 3.788-1.644l.139.294c-1.48.941-2.912 2.013-4.287 3.043zm18.496-4.965a15.792 15.792 0 0 0-1.382-.262l-.147-.04c-.295-.074-.622-.132-1.055-.197-.18-.074-.36-.147-.532-.22l-.041.17c-.27-.016-.54-.032-.818-.032-.18 0-.36.008-.573.008-.425-.057-.842-.114-1.268-.163v.286l-.253.04c-.819.034-1.612.083-2.381.124l-.45-.033h-.106l-.017-.14c-.065.017-.122.042-.188.058l-.204.057a37.597 37.597 0 0 0-1.923-.049c-1.791 0-3.665.123-5.595.368-3.518.107-8.148.303-12.803.925l-.106-.303a26.927 26.927 0 0 0 2.511-1.652c.148-.05.295-.099.434-.14l-.074-.147.05-.04.523-.189-.025-.196c.778-.622 1.514-1.374 2.226-2.11 1.12-1.154 2.282-2.348 3.689-3.11 1.047-.564 2.053-.858 2.986-.858 1.145 0 2.184.425 3.092 1.268.237.213.45.45.654.695l.172.205.017.008.122.147c.41.483.827.982 1.342 1.366 1.48 1.121 3.215 1.276 4.72 1.276h1.432c.482 0 .957.009 1.415.025l.074.024.032.017c1.285.589 2.61 1.202 3.812 1.98.131.081.434.286.778.523l-.14.311zm2.348.908a8.823 8.823 0 0 0-1.611-.728c-1.08-.957-2.38-1.783-4.09-2.602l.09-.31c1.955.245 3.403.916 4.703 2.184.344.335.696.72 1.105 1.21l-.197.246zm4.532-4.23c-.294-1.423-.842-2.838-1.701-4.441-.033-.058-.066-.115-.09-.18.67 1.35 1.235 2.797 1.448 4.376.13.982.082 1.964.04 2.92-.016.426-.04.852-.048 1.285l-.32.04a42.621 42.621 0 0 0-.302-1.087l-.14.049c-1.529-3.902-3.967-6.847-7.034-8.573 4.139 2.593 6.102 7.248 7.755 11.82l-.287.148-.27-.393c-1.276-1.824-2.585-3.714-4.392-5.162-.066-.106-.131-.204-.197-.31l-.098.09-.14-.115a5.456 5.456 0 0 0-.36-.237l-.073-.041-.016-.017c-.213-.204-.425-.409-.655-.605l-.114.172a7.746 7.746 0 0 0-3.501-.802c-.14 0-.278 0-.417.008l-.189.008a4.15 4.15 0 0 0-.458.05l-.049.008-.008-.008-.319.049c-.303.049-.605.106-.908.163-.368.074-.736.14-1.096.197-.352.049-.687.082-1.031.098-2.806-.352-3.051-.663-3.06-.925-.008-.245.23-.466 1.4-.728h-.099l-.065-.31c.646-.287 1.3-.712 1.955-1.277l.098-.082.573.385c.04-.106.163-.188.376-.245l-.589-.099-.344-.049.254-.237c.27-.245.54-.507.794-.777.31-.327.638-.704.981-1.096.237-.27.475-.548.72-.818l.106-.115s.45.385.606.524c-.23-.32-.246-.483-.197-.597V60.6l-.278-.065.197-.205c1.112-1.178 2.634-2.52 4.499-2.52.213 0 .425.017.646.058l-.008.327h-.033c.107.156.205.311.303.467a.53.53 0 0 1 .049-.287c.04-.073.14-.188.36-.188.303 0 .794.221 1.522.68.09.056.171.122.253.212l.115-.14c1.137.753 2.127 1.809 2.855 2.954a32.232 32.232 0 0 0-.95-1.383c-.171-.237-.752-1.055-.875-1.227l.254-.204c.663.736 1.325 1.35 2.02 1.873l.05.041.327 1.669-.303.106c-.155-.294-.335-.572-.515-.85.728 1.153 1.194 2.396 1.284 3.566l.025.041v.05a76.404 76.404 0 0 0 0 1.938l-.336.033zm.86 7.24c-.41-.948-.508-1.955-.549-2.716l.327-.032c.131.908.303 1.8.524 2.642l-.303.106zm5.758 5.416a14.88 14.88 0 0 1-3.002-3.984c-1.497-2.847-2.356-6.029-2.708-10.038.09-1.456.074-2.953-.032-4.482l.073-1.538-.22.008-.05-.442v-3.321c-.032-5.31-.908-10.815-2.765-17.343-.54-1.906-1.816-6.373-.417-8.712.434-.728 1.096-1.203 1.972-1.407l.139-.033.008.008.278-.04c.09-.017.18-.033.286-.042l.189-.008.343-.008c1.53 0 1.914.54 2.462 2.389.213.736.279 1.538.336 2.307l.032.4-.106.017c.057.262.115.532.164.801.049.68.098 1.342.253 1.997.033.147.074.278.115.409l.033.122.049.45.098-.024c.123.319.27.605.425.859.107.196.221.392.352.58.843 1.178 1.947 1.751 3.387 1.751.286 0 .58-.024.9-.065l.106-.017c.614-.09 1.3-.261 2.143-.531 1.04-.328 1.89-.491 2.61-.491 2.11 0 2.659 1.44 3.01 2.797l.017.058-.033.057a.165.165 0 0 0-.025.09l-.098 2.356c-.123 3.15-.237 6.176-.72 9.252.753-3.28 1.162-6.332 1.227-9.121l.32-.05c.065.18.139.369.229.573.278.835.769 1.407 1.513 1.76.679.441 1.456.67 2.315.678h.442l-.336.287c-.752.638-1.464 1.497-2.233 2.724-1.554 2.478-3.035 5.3-4.802 9.145l-.114-.04c-.131.392-.27.801-.434 1.235a264.71 264.71 0 0 0-1.399 3.141c-1.317 2.994-2.11 5.776-2.356 8.295-.155 1.17-.147 2.463.008 3.73l-.31.09c-.532-1.063-.892-2.102-1.089-3.182a17.47 17.47 0 0 1-.27-3.386c-.114 2.724.156 5.873 1.178 8.466l-.286.156c-1.8-2.373-2.781-5.318-3.01-9.023.008-.77.057-1.546.13-2.323l-.18-.009c.025-1.292.123-2.658.295-4.18.507-4.401 1.064-9.178 1.505-14.07-.188 1.627-.392 3.255-.589 4.85-.564 4.614-1.145 9.384-1.538 14.08-.139 1.635-.237 4.85.614 7.959l-.082.025c.098.228.197.458.303.687.204.621.409 1.153.638 1.62l-.303.155-.073-.066c-3.354-4.196-5.048-10.528-4.761-17.833.106-2.683.36-5.391.613-8.009-.54 4.81-1.063 9.768-.507 14.635.22 1.89.597 3.739 1.137 5.473l-.31.114c-1.563-3.665-2.054-7.861-2.054-11.919a36.27 36.27 0 0 0-.008 1.628c.04 3.215.605 9.326 3.975 14.16.188.369.393.729.598 1.08l-.221.164c.319.368.654.72.998 1.064a17.93 17.93 0 0 0 1.66 2.061l-.204.254a19.445 19.445 0 0 1-1.833-1.26zm3.215 20.083a.134.134 0 0 0-.073-.024.115.115 0 0 0-.099.057c-.032.041-.057.098-.049.147l.066.45-.335-.303a24.617 24.617 0 0 1-.843-.785l-.033.066-.155-.336a5.282 5.282 0 0 1-.401-1.268c.008.188.016.368.049.564l.065.516-.351-.376a16.962 16.962 0 0 1-2.11-2.798c0-.033-.01-.074-.01-.106l-.065.016c-.261-.434-.482-.85-.67-1.293l-.008.041-.23-.589c-.58-1.48-.818-2.961-.695-4.417.36-4.336 3.747-4.745 7.526-4.794a9.56 9.56 0 0 0 1.66.147c.45 0 .9-.032 1.334-.098l.041-.008s.156.057.213.082c.065.024.13.057.196.081.074.025.156.041.221.041.286 0 .45-.204.524-.327l.04-.065.082-.008a8.355 8.355 0 0 0 1.628-.344l.107-.033.073.09c.025.033.05.057.066.074l.229.188-.287.09c-.638.205-1.284.4-1.938.597-.663.205-1.342.41-2.02.63.703-.172 1.422-.335 2.126-.499 1.374-.31 2.79-.63 4.107-1.039l.147.287a55.621 55.621 0 0 1-3.305 2.216c.172-.09.335-.171.483-.261 1.464-.843 2.97-1.792 4.744-2.995.483-.212.95-.458 1.424-.752l.204.253c-1.922 1.997-4.23 4.222-7.141 6.12 1.93-1.056 3.918-2.16 5.718-3.502a25.902 25.902 0 0 0 2.127-1.783l.147.123c.025-.041.614-.851.614-.851a30.155 30.155 0 0 0 1.824-1.98c.4-.483.826-1.014 1.243-1.603a.74.74 0 0 0 .066-.107c.024-.04.049-.081.098-.147.114-.106.237-.204.36-.294l.196-.156.123.491c.049.188.098.376.139.565l-.008.081h.024l.008.099-.081.098a152.587 152.587 0 0 0-5.825 7.248c1.767-2.136 3.55-4.115 5.154-5.866l.032.025c.017-.041.041-.074.058-.115l.09-.114.384-.418.311-.335.066.31c.196.974.36 1.956.482 2.962v.05h.017c.31 2.543.351 5.014.114 7.346-.172 1.652-.49 3.304-.843 4.916 1.514-6.234 1.76-11.232.819-16.173l-.017-.082.663-.711.098.245c2.52 6.438 1.816 13.26 1.145 19.854-.082.794-.163 1.587-.237 2.372-.164 1.71-.303 3.477-.327 5.269.073-2.904.458-5.817.826-8.696.663-5.088 1.342-10.357.294-15.306l.311-.098a20.119 20.119 0 0 1 1.596 5.8c.45 3.591.098 6.97-.27 10.545-.09.85-.18 1.701-.254 2.56.213-1.898.515-3.812.826-5.767l.05-.327c.523-3.322.965-7.183.237-10.643l.31-.107c2.283 4.778 2.823 9.948 3.395 15.429.009.09.017.188.033.278l-.123-1.89c-.114-1.783-.237-3.624-.425-5.423a34.002 34.002 0 0 0-.695-4.197l.31-.106c.77 1.677 1.326 2.986 1.784 4.254.646 1.775 1.268 3.599 1.865 5.358.27.793.54 1.595.818 2.397-.327-1.088-.646-2.217-.982-3.387-1.194-4.238-2.437-8.622-4.572-12.263l.261-.196c2.83 3.125 4.508 7.158 5.907 11.29-.54-1.71-1.146-3.47-1.865-5.146l.122-.058a32.225 32.225 0 0 0-.523-.9l-.131-.212c-1.162-2.43-2.512-4.377-4.115-5.947l.033-.05c-.025-.008-.123-.049-.123-.049l-.32-.4c-.154-.197-.31-.393-.474-.581-.196-.238-.523-.507-.81-.745l-.081-.065-.017-.016a7.738 7.738 0 0 0-.376-.491l-.204-.27.409.008.04.033c2.365 1.742 4.688 3.108 7.159 4.18l.081.032.017.017c1.652 1.317 3.215 2.732 4.597 3.984l.131.123a53.512 53.512 0 0 1 3.91 3.926 52.592 52.592 0 0 0-7.755-7.33l.156-.286c.261.098.539.196.867.311 5.383 3.493 8.728 8.524 11.281 12.99l-.074.042c.229.335.45.679.671 1.022.082.147.163.303.253.45l.025-.016c-2.79-5.252-5.955-10.357-10.864-13.874l.115-.295c.188.025.376.04.548.04.556 0 .957-.138 1.186-.416.262-.32.327-.835.188-1.53-.262-1.35-1.603-2.56-2.781-3.624-.376-.344-.736-.663-1.031-.974-.483-.49-.957-1.022-1.44-1.562a35.943 35.943 0 0 0-.752-.826l.196-.254c3.518 1.89 6.536 4.14 8.966 6.692 1.341 1.407 2.593 2.904 3.804 4.425-3.927-5.096-8.443-10.168-14.357-12.279-.41-.392-.736-.678-1.055-.924l-.262-.204.319-.082a7.204 7.204 0 0 1 1.857-.254c4.164 0 7.583 3.829 10.332 6.913.483.54.949 1.055 1.399 1.538 1.047 1.12 2.086 2.25 3.117 3.378a225.208 225.208 0 0 0 4.327 4.655 112.724 112.724 0 0 1-2.789-3.174 115.627 115.627 0 0 1-2.855-3.534c-2.16-2.732-4.385-5.555-7.011-7.82a12.752 12.752 0 0 0-2.381-1.637l.115-.302c1.44.343 2.781.875 4.066 1.546-.377-.221-.761-.434-1.146-.63l.131-.303c1.644.58 3.191 1.35 4.704 2.34-2.675-1.955-5.645-3.379-8.909-3.657v-.327a34.302 34.302 0 0 1 2.675-.115c3.371 0 6.169.59 8.565 1.792.622.31 1.219.654 1.808 1.014a26.503 26.503 0 0 0-5.113-2.732 15.251 15.251 0 0 0-1.276-.434l.058-.319c1.145.058 2.2.205 3.247.442 3.084.704 5.866 2.225 8.434 4.025-.065-.05-.122-.09-.188-.14-4.924-3.566-10.414-5.578-15.461-5.66l-.057-.32c1.587-.613 3.043-.94 4.573-1.046.319-.025.646-.033.965-.033 4.36 0 8.393 2.012 11.052 3.518.573.327 1.137.654 1.701.998-1.824-1.17-3.714-2.266-5.685-3.142-2.691-1.202-5.784-2.004-8.5-2.2l-.024-.32c1.022-.22 1.971-.335 2.896-.335.18 0 .368 0 .556.017 4.229.196 8.099 2.037 10.986 3.615 3.346 1.825 6.668 3.82 9.899 5.784-4.442-2.806-9.007-5.554-13.727-7.796l.033-.082c-.188-.057-.377-.106-.565-.163-1.914-.86-5.685-2.315-9.407-2.397l-.017-.327c.704-.09 1.465-.14 2.258-.14 2.847 0 5.808.581 8.671 1.138 1.293.253 2.504.49 3.665.662.957.147 1.931.27 2.921.401 4.434.573 9.023 1.162 12.761 3.534 3.264 2.078 3.395 5.178 3.06 8.23l-.016.155c-.082.663-.18 1.334-.279 2.004-.188 1.236-.376 2.512-.409 3.698-.073 2.986 1.146 5.203 2.438 7.55a44.95 44.95 0 0 1 1.358 2.602c.057.123.098.237.147.36l.09.229.041.114c.426 1.113.581 2.152.475 3.158l-.033.254c-.254 1.701-1.227 3.141-2.2 4.475l-.074.098s-.188-.066-.229-.074v.049a.185.185 0 0 1-.049.106l.204.017-.253.343c-.712.958-1.448 1.947-2.045 3.06-.63 1.17-.917 2.348-.876 3.608.017.646.139 1.366.254 2.061.262 1.595.532 3.24-.286 4.377-.491.679-1.309 1.088-2.496 1.276-.589.09-1.21.131-1.889.131-1.481 0-3.027-.213-4.516-.426-1.481-.204-3.01-.417-4.475-.417-.18 0-.368 0-.548.008l-.122.008v.017h-.164l-.098.065-.033-.057a9.493 9.493 0 0 0-2.282.417c-1.146.368-1.955 1.088-2.814 1.841-.221.196-.45.392-.688.589-.908.761-1.865 1.145-3.092 1.26h-.024l.008.008-.45.016c-.147.008-.286.008-.434.008-.376 0-.752-.016-1.145-.032a28.444 28.444 0 0 0-1.219-.033c-.286 0-.581.008-.883.033-1.62.114-2.962 1.039-4.254 1.938l-.156.107c-1.93 1.333-3.722 1.971-5.644 2.004l-.025-.18a4.524 4.524 0 0 1-.622.155 10.956 10.956 0 0 1-2.912-.58c-.155-.049-.327-.107-.499-.164l-.229-.082-.024-.024-.017.024c-.777-.253-1.66-.572-2.192-1.178-.491-.556-.59-1.513-.68-2.438-.024-.229-.04-.458-.073-.67l.303-.107.098.172c.05.074.09.156.107.196l.024.017.115-.017c-1.432-2.732-2.84-5.644-3.772-8.777a30.942 30.942 0 0 0 1.694 5.088l-.27.18a8.733 8.733 0 0 0-1.056-.933c-.49-.368-1.047-.711-1.807-1.112l-.05-.025s-.04-.082-.04-.106l.016.082-.295-.148c-.31-.155-.621-.302-.973-.466l-.123-.065c-.262-.139-.54-.27-.883-.426l-.074-.081-.033.049a18.237 18.237 0 0 0-1.063-.385c-1.71-.687-3.649-1.464-5.252-2.732-.05-.057-.09-.115-.14-.172l-.032.025a7.94 7.94 0 0 1-1.006-1.023l-.033-.033-.008-.049c-.466-3.706.368-7.272 1.424-11.215.204-.777.409-1.563.605-2.348-.197.687-.401 1.366-.605 2.053-.639 2.119-1.301 4.311-1.653 6.52-.229 1.44-.303 2.708-.229 3.886l.04.613-.334-.515c-.27-.409-.516-.826-.77-1.243-.425-.704-.858-1.424-1.39-2.136l-.098-.319-.123.066-.196-.246c-.851-.957-1.882-1.652-3.166-2.405l-.728-.417a80.475 80.475 0 0 1-1.121-.646 26.245 26.245 0 0 1-1.513-.974c-.892-1.349-2.005-2.421-3.363-3.321zm6.807 13.244-.099-.589c-.417-2.421-1.014-5.227-2.257-7.648l.245-.205.63.458c.114.082.458.344.458.344l-.147.286-.254-.082a28.872 28.872 0 0 0 1.66 3.534c-.588-1.227-1.202-2.675-1.087-3.149a.347.347 0 0 1 .147-.213l.098-.057.09.073c1.857 1.481 2.97 2.872 3.861 4.819l.058.131c.376.834.736 1.619 1.186 2.331l-.237.221c-.704-.532-1.301-.892-1.841-1.096l-.13-.049a15.488 15.488 0 0 0-.475-.18l-.05-.017-.008-.008-.27-.073a1.933 1.933 0 0 0-.482-.074c-.278 0-.622.082-.867.712l-.23.531zm2.192 9.727-.156.057-.057-.155c-.777-2.282-1.202-4.712-1.562-7.003l.302-.106c.663 1.186 1.686 2.381 2.438 3.248.18.204.344.401.483.572 1.186 1.432 2.593 2.782 4.172 4.017l-.156.286c-1.93-.695-3.452-1.047-4.507-1.047-.376 0-.704.041-.957.131zm1.333 3.215c-.204-.499-.122-.99.246-1.456.261-.327.712-.491 1.341-.491 1.923 0 5.252 1.513 7.461 2.52.614.278 1.129.515 1.505.662l.008-.016.148.033h.171l-.008.171c-.024.9-.073 1.956-.253 2.945l-.025.156-.155-.016c-2.176-.295-9.481-2.168-10.439-4.508zm1.58 2.274.22-.237c2.397 1.677 5.244 2.724 8.475 3.109l.188.024-.057.188c-.442 1.538-1.309 2.749-2.65 3.706l-.18.131-.066-.213c-.237-.744-.785-1.431-1.096-1.775-.712-.793-1.48-1.53-2.225-2.25-.884-.842-1.784-1.717-2.61-2.683zm2.388 9.866a87.273 87.273 0 0 0-.548-2.716l-.074-.319.303.139c.393.18.777.368 1.153.573l.074.041.008.081a1.55 1.55 0 0 1-.033.614l-.065.343-.205-.269c.156.319.393.548.696.679l.253.114-.22.172a6.39 6.39 0 0 1-.745.482l-.556.295-.041-.229zm.523 3.256a82.36 82.36 0 0 0-.319-2.045l-.016-.082.066-.057c.261-.254.621-.45.997-.663.475-.262.966-.54 1.268-.924l.148-.189.123.205c.343.573.466 1.137.368 1.62.122.45.09.81-.107 1.079-.212.303-.63.475-1.227.524-.425.458-.777.687-1.153.687l-.14-.016-.008-.139zm.565 143.045c.327-3.469.237-6.888.147-10.202l-.016-.515c-.016-.638-.033-1.268-.041-1.914l-.008-.606.147.238c-.04-.082-.09-.172-.13-.262l-.017-.09v-.033c-.008-.605-.017-1.21-.017-1.824 0-.213.025-1.473.025-1.473v-.073c.049-3.534.188-7.134.327-10.61.09-2.185.172-4.377.237-6.561l.082-2.921c.36-12.139.728-24.697.86-37.049.13-12.116-.075-24.91-.63-39.111-.107-2.757-.164-5.612-.222-8.377-.057-2.798-.114-5.702-.229-8.549l-.008-.262.237.107a4.261 4.261 0 0 0 1.694.392 7.166 7.166 0 0 1-1.84-.49l-.1-.041v-.107a187.49 187.49 0 0 0-.187-3.705l-.025-.377.287.237c.613.508 1.595 1.121 2.773 1.17-1.35-.368-2.25-.785-3.01-1.382l-.058-.049-.008-.074a139.383 139.383 0 0 0-.286-3.681l-.041-.409a88.775 88.775 0 0 0-.369-3.338l-.024-.213.213.033.09.017c.032.008.057.016.09.016h.147c.72 0 1.399-.303 1.922-.859a3.436 3.436 0 0 0 .908-2.495c-.04-.753-.294-1.448-.76-2.119l-.05-.123.123-.163.09.008.417.008a.12.12 0 0 0 .017-.09l-.041-.155.155-.049c.107-.033.213-.074.311-.115l.393-.147-.05.286c-.253 1.399-.114 2.708.05 4.221.04.385.082.786.123 1.211.253 2.814.18 5.677.114 8.442l-.033 1.53c-.049 2.479-.122 4.958-.188 7.436a902.97 902.97 0 0 0-.229 9.432c-.245 13.932-.262 25.458-.049 36.273.196 10.324.622 21.572 1.325 35.397.14 2.79.23 5.628.32 8.377.237 7.542.482 15.347 1.873 22.865l.032.163-.163.025c-.131.024-.262.032-.393.032-.859 0-1.726-.417-2.577-1.006.925.646 1.882 1.137 2.733 1.137.09 0 .188-.008.278-.016l.155-.016.205 1.063-.033.057c-.303.458-.597.925-.892 1.416l-.04.073-.083.008c-.139.008-.286.017-.425.017-1.75 0-3.288-.606-4.385-1.669 1.13 1.17 2.692 1.898 4.189 1.898.09 0 .172 0 .262-.008l.302-.017-.155.262a33.002 33.002 0 0 0-.933 1.669l-.057.106-.115-.016a7.436 7.436 0 0 1-2.25-.728 6.699 6.699 0 0 0 2.103.818l.213.041-.196.392c-.115.229-.23.45-.328.679l-.155.344-.205-.499c-.008-.025-.032-.057-.09-.057a.222.222 0 0 0-.147.065c-.024.033-.024.057-.016.098l.245.892-.016.049a15.9 15.9 0 0 0-.401 1.145l-.016.058-.058.032c-1.636.957-2.454 2.741-2.266 4.9l.033.352-.286-.204a5.496 5.496 0 0 0-.81-.483l-.106-.049.016-.106zm4.516 1.595-.025.098a9.003 9.003 0 0 1-.622 1.636l-.155.327-.14-.335a8.335 8.335 0 0 1-.67-3.722l.32-.033a4.098 4.098 0 0 0 1.218 1.963l.074.066zm-4.876 1.121c.123-.737.22-1.399.286-2.029l.025-.246.212.115c.369.204.761.564 1.203 1.129.106.392.23.736.368 1.039l.09.196-.213.033a6.074 6.074 0 0 1-.752.057 5.58 5.58 0 0 1-1.096-.115l-.156-.032.033-.147zm-.344 1.415a.933.933 0 0 0 .18-.385l.09-.515.172.057c.393.123.818.18 1.252.18.31 0 .63-.033.965-.09l.115-.016.057.098a6.046 6.046 0 0 0 1.21 1.448c.099.09.238.139.377.139.098 0 .335-.033.409-.311.254-1.014.442-1.89.589-2.691l.04-.246.213.139c.279.188.557.352.851.491l.115.049-.05.229a.52.52 0 0 0-.024.156l-.008.139-.14.016c-.326.041-.53.344-.547.614-.008.139.04.384.392.466l.843.188-.335.213a7.553 7.553 0 0 1-4.017 1.17 7.162 7.162 0 0 1-1.759-.221 4.047 4.047 0 0 1-.826-.843c-.057-.082-.123-.172-.18-.278l-.057-.098.073-.098zm-.965.18c.14.057.27.082.434.082h.106l.09.171c.033.058.057.107.09.164l.294.466-.499-.229a7.42 7.42 0 0 1-.572-.303l-.082-.049.14-.302zm.908 2.675c-.04.098-.229.63-.229.63l-.18-.27c-.442-.655-.728-1.383-.818-2.111l-.04-.319.285.155c.614.344 1.17.589 1.767.778.262.212.532.392.827.54a4.47 4.47 0 0 0 2.053.49c1.415 0 2.863-.67 3.853-1.791l.294-.336-.016.45a5.03 5.03 0 0 1-.278 1.497l-.025.066-.065.033c-.13.057-.204.155-.237.319l-.05.253-.065.27a4.064 4.064 0 0 1-1.538 1.465 4.012 4.012 0 0 1-1.922.499c-.924 0-1.84-.311-2.675-.892l-.041-.025-.016-.049a8.308 8.308 0 0 0-.884-1.652zm-.63 65.828c.663-7.787 1.195-14.332 1.604-21.007.515-8.344.932-16.754 1.243-25 .074-1.898.082-3.804.041-5.661l-.008-.343-.008-.058a75.109 75.109 0 0 0-.36-5.562l-.033-.393.31-.09c.63 1.301 1.841 2.192 3.322 2.43l.155.024-.016.156a160.014 160.014 0 0 0-.425 4.744l-.017.148h.009l-.017.171c-.27 3.698-.433 7.469-.597 11.109-.123 2.651-.245 5.391-.4 8.05-.369 6.176-.516 12.475-.647 18.562-.106 4.573-.213 9.301-.41 13.948l-.007.245-.221-.106c-.32-.148-.663-.262-.998-.377l-.442-.147-2.078-.728v-.115zm-.008.172 2.062.867c.139.058.286.123.425.189.368.163.744.335 1.12.433l.131.033-.032.834c-.016.458-.041.908-.066 1.366l-.564 10.635-.695-1.17a220.15 220.15 0 0 0-1.784-2.961l.221-.229c.548.335 1.105.662 1.66.99a.217.217 0 0 0 .09.024c.066 0 .115-.049.14-.098a.194.194 0 0 0-.025-.204c-.572-.712-1.129-1.457-1.636-2.086l.556.932-.237.221-2.086-1.464.72-8.312zm-.802 9.326.557 1.014-.262.197-.368-.393.073-.818zm.221 3.321.63 1.391-.188.049c-.18.049-.344.123-.483.237l-.261.197-.009-1.8.311-.074zm-7.657 6.111c-1.178-7.804-2.462-15.747-3.705-23.429-3.035-18.75-6.169-38.137-8.058-57.321-1.342-13.588-1.694-26.955-1.064-39.733.303-6.192.867-12.27 1.66-18.079l.287.009-.13-1.031.032-.237c.188-1.268.499-3.387.49-3.575l.156.139v-.327c.197 0 .237 0 .966 4.491l.081.515c.368 2.07.728 4.148 1.088 6.225l.614 3.534c.442 2.536.892 5.072 1.333 7.608 1.816 10.283 3.69 20.918 5.211 31.43 1.203 8.336 2.168 16.827 3.093 25.049.523 4.654 1.071 9.465 1.652 14.193 1.653 13.408 2.634 27.135 2.994 42.023-.04.107-.04.213.025.377l.024.94c-.302 3.567-.589 7.134-.859 10.701l-.327-.009c-.654-26.75-3.1-54.989-7.272-84.21 3.435 26.227 5.71 53.697 6.904 83.433l.008.115-.098.041a.176.176 0 0 0-.115.171c.131 2.896.238 5.784.344 8.696-.14 2.16-.27 4.328-.41 6.496h-.326l-.017-.311c-.319-5.874-.72-11.813-1.137-17.899-.106-1.53-.384-5.457-.384-5.457a307.677 307.677 0 0 0-.246-6.822 1122.661 1122.661 0 0 0-2.994-44.56 1162.67 1162.67 0 0 0-4.4-41.728l.13-.017c-.188-1.145-.376-2.29-.573-3.436-.335-2.626-.67-5.178-1.006-7.681l-.024-.008.049.294c3.935 30.023 6.749 60.266 8.36 89.896l-.327.025c-1.358-17.949-2.765-33.647-4.295-47.987-2.29-21.507-4.982-43.856-7.992-66.459 0 0 .065-1.088.098-1.571h-.31l-.27-2.029.376 4.205c-1.988 20.116-.336 40.51 1.832 58.818-1.89-18.676-2.839-37.45-1.914-56.159l.327-.008c1.162 12.68 2.389 25.572 3.575 38.039 1.186 12.492 2.421 25.409 3.583 38.113 1.366 14.995 2.487 28.853 3.411 42.359l-.278.033c.09.572.515 3.428.515 3.428.246 3.951.442 7.976.63 11.869.082 1.718.164 3.436.254 5.154l-.327.033c-.417-2.79-.826-5.587-1.244-8.369zm12.108 25.352c-.794 3.239-1.58 6.56-2.168 9.865l-.328-.032c.082-2.553.18-5.113.295-7.682.033-.253.057-.491.09-.744.712-.467 1.415-.933 2.11-1.407zM79 437.339l-.328-.016v-1.939l.262.188c.058.041.115.074.172.107l.098.057-.204 1.603zm10.168.827a460.502 460.502 0 0 0-1.17 3.599l-.319-.082a3680.096 3680.096 0 0 1 5.178-28.329 3941.165 3941.165 0 0 1-6.994 35.185c-.213.695-.425 1.398-.638 2.11a353.127 353.127 0 0 1-2.266 6.176c.016.017.04.033.074.033h.024l.188-.433.311.106a215.43 215.43 0 0 0-1.513 5.882l-.32-.058.074-.523c.082-.589.164-1.178.254-1.775.05-.327.098-.655.147-.982l-.204-.024c-.205 1.889-.41 3.779-.614 5.677-.024.196-.032.442-.049.752a160.659 160.659 0 0 0-1.104 5.334l-.327-.033c.008-10.291.703-21.195 2.07-32.427.997-8.164 2.265-16.181 3.37-22.955.63-3.861.981-7.82 1.325-11.641.09-.998.188-2.02.278-3.043 3.42-2.364 6.79-4.81 10.078-7.354-.09.376-.188.761-.278 1.129l-.237-.049c-.278 1.464-.564 2.928-.843 4.393l-1.644 6.56c-1.104 4.426-2.233 8.934-3.346 13.457 1.088-4.327 2.193-8.63 3.28-12.884l.279.066c.27-1.424.54-2.855.81-4.295.703-2.757 1.431-5.612 2.16-8.508 1.267-.982 2.527-1.98 3.771-2.994-.09.442-.172.883-.262 1.317l-.147.728c-3.19 15.96-6.226 28.779-9.555 40.363-.614 1.832-1.227 3.673-1.84 5.522zm6.74-19.855-2.658 7.747-.31-.098c1.856-7.043 3.656-14.692 5.505-23.388.908-4.246 1.767-8.377 2.593-12.402l.589-.466c.556-.458 1.096-.924 1.644-1.382-2.233 10.217-4.679 20.222-7.362 29.989zm4.206-12.385-.311-.098a519.02 519.02 0 0 0 4.736-18.562c.663-.564 1.317-1.137 1.964-1.709-1.726 6.004-3.78 12.54-6.389 20.369zm46.244-83.024c-2.307 12.287-8.401 23.822-15.396 34.072-5.693 8.344-12.385 15.968-19.69 22.938 5.726-21.956 8.475-45.263 8.164-69.551-.008-.581-.016-1.153-.033-1.734 8.884-.965 17.556-3.24 26.096-5.964 2.086 6.365 2.103 13.588.859 20.239z" fill="#7C909C"/><path d="m82.943 268.444-.107-.082c.05.033.107.082.156.123-.017-.016-.033-.033-.05-.041zM81.65 360.794l-.294-.171.294.204c.843.589 1.71 1.203 2.61 1.636-.786-.63-1.71-1.161-2.61-1.669zM66.884 266.751c-.115-.851-.23-1.702-.352-2.544.115.834.221 1.66.328 2.486l.024.058zM84.857 146.628a1.7 1.7 0 0 1-.965.294h.032c.311 0 .606-.081.867-.237.598-.36 1.056-1.211.819-1.89-.017.606-.05 1.358-.753 1.833zM85.986 270.98c-.581-.433-1.145-.932-1.685-1.399-.467-.409-.9-.785-1.31-1.096.32.254.688.573 1.089.916.572.499 1.227 1.072 1.906 1.579zM128.639 107.361c-3.157-2.258-5.865-4.401-8.327-6.814 2.192 2.258 4.466 4.188 6.871 5.824 0 0 1.235.835 1.456.99zM112.965 119.706c-.213-.189-.769-.655-.826-.712.163.155.335.303.507.458.098.082.204.164.319.254zM54.335 60.61c.025.04.041.09.066.13.114.23.213.434.303.59.22.384.441.777.654 1.186-.033-.066-.065-.123-.098-.188-.27-.54-.573-1.146-.925-1.718zM116.295 124.72v-.041a4.726 4.726 0 0 0-.712-2.143c-.008.36-.131.777-.417 1.276.311.262.622.507.933.753l.196.155zM35.005 35.953l.098-.163a48.648 48.648 0 0 0-3.166-1.718 71.423 71.423 0 0 1 3.068 1.881zM164.74 55.219c-.507-.066-1.015-.14-1.53-.205 1.522.278 3.027.573 4.524.908 4.246.95 8.058 2.103 11.641 3.526l.949.376c2.364.95 4.622 1.857 7.068 2.217-2.225-.556-4.287-1.554-6.299-2.536-1.62-.785-3.289-1.595-5.023-2.168-3.305-1.088-6.782-1.538-10.136-1.971l-1.194-.147zM177.109 49.394c-.507.074-1.015.14-1.53.188.344 0 .54 0 .63.082.311-.09.605-.18.9-.27zM133.457 53.19c2.675.294 5.31.81 7.895 1.472-3.305-.883-6.594-1.497-9.932-1.71.385.041 1.751.213 2.037.238zM56.372 61.902c0 .008.008.017.008.017 0-.009-.008-.009-.008-.017zM121.653 61.141a19.13 19.13 0 0 0-.949-.163v.073c.327.009.646.041.949.09zM43.651 61.223v.017c.017 0 .033 0 .05.008l-.05-.025zM35.798 61.117v.016l.098-.008-.122-.057v.008l-.017-.008c.017.016.025.032.041.049zM134.153 64.446c.041.017.082.033.131.05 1.161.466 2.348.932 3.534 1.382a146.647 146.647 0 0 1-3.665-1.432zM62.966 238.683l.016-.147-.155.008.016.123.123.016zM63.04 239.322l-.033.204.082-.016-.05-.188zM135.879 113.251c-1.219-1.399-2.642-2.601-4.082-3.665 1.481 1.121 2.871 2.307 4.082 3.665zM104.842 324.538a165.07 165.07 0 0 1-.303 1.407c-2.92 13.555-5.914 27.438-8.646 41.345 1.644-8.189 3.378-16.329 5.072-24.321 1.292-6.062 2.601-12.23 3.877-18.431zM156.658 152.6c-.025.024-.049.041-.066.065-1.415 1.358-2.773 2.659-3.378 4.368.777-1.578 2.053-2.945 3.305-4.278.049-.057.098-.106.139-.155zM146.923 161.623l-.246-.058s.041-.335.049-.417a9.804 9.804 0 0 0-.008-1.472c0 1.088-.09 2.168-.253 3.247l-.352.81.196.066-.033.163c-.032.18-.073.36-.114.54.172-.703.327-1.415.433-2.135.115-.245.221-.491.328-.744zM148.665 154.04a13.676 13.676 0 0 1-.286 3.231c.196-.933.319-1.898.303-2.888 0 .008-.009-.221-.017-.343zM120.083 206.632a95.373 95.373 0 0 1 1.816 4.189 26.614 26.614 0 0 0-1.816-4.189zM146.17 164.502a7.165 7.165 0 0 1-.107.393c.033-.115.066-.213.082-.303.017-.033.017-.065.025-.09zM109.816 327.033c.114-.933.221-1.865.335-2.798-.131.761-.27 1.522-.401 2.283l.131.016c-.164 1.35-.335 2.7-.515 4.049.147-1.178.302-2.364.45-3.55zM110.806 318.485l-.27 2.413c.139-.818.278-1.62.409-2.397l-.139-.016zM35.512 59.456c.024.262.057.515.098.76-.05-.245-.074-.506-.098-.76zM110.258 323.352c-.033.294-.074.589-.107.883v-.016c.033-.286.066-.573.107-.867zM96.269 28.665c.924 4.998 1.374 9.514 1.341 13.767.098-4.957-.352-9.555-1.341-13.767zM63.269 33.14c.057.367.13.72.212 1.071-.081-.343-.139-.712-.212-1.072zM62.958 29.826c-.05-1.072-.066-2.168-.05-3.272-.098 2.29-.016 4.516.369 6.585a27.104 27.104 0 0 1-.32-3.313zM67.98 39.201c0 .033-.008.05-.016.074l.229.303c-.066-.123-.14-.246-.213-.377zM142.26 36.453c.891-.41 1.799-.86 2.307-1.252-.769.409-1.538.826-2.307 1.252zM49.239 36.878c-.59-1.235-1.407-3.01-1.955-4.41.417 1.555 1.129 2.986 1.955 4.41zM55.603 26.628c0 .016-.008.024-.008.04h.017c-.009-.008-.009-.024-.009-.04zM89.283 16.86c-.033-.376-.066-.753-.107-1.12.058.605.107 1.185.156 1.734-.025-.328-.041-.565-.05-.614zM83.565 72.357l.008-.008c-.016-.016-.025-.033-.041-.05.008.025.025.042.033.058zM31.25 76.398c.114-.09.22-.172.335-.254-.515.385-1.039.777-1.57 1.154.409-.287.826-.59 1.235-.9zM73.012 38.956v.016c.008-.008.008-.016 0-.016zM144.804 35.274c-.769.524-1.53 1.047-2.29 1.58.85-.492 1.799-1.056 2.29-1.58zM174.475 65.943c-.483-.098-.974-.22-1.456-.335.049.008.098.024.147.04.433.107.867.197 1.309.295zM174.475 65.943c1.619.36 3.231.63 4.842.818a64.336 64.336 0 0 1-4.842-.818zM87 13.948a21.48 21.48 0 0 0-.049-2.716 91.06 91.06 0 0 1-.466 5.8c.188.294.376-.385.515-3.084zM86.951 6.65c.532 1.122.95 2.267 1.293 3.437-.344-1.75-.77-3.093-1.293-3.436zM52.577 20.419c.368.433.711.875 1.014 1.341a8.38 8.38 0 0 0-1.014-1.341zM117.407 202.395c.319.384.63.785.925 1.186-.36-.606-.679-1.039-.925-1.186zM131.036 209.062c-.008 0-.016-.009-.024-.017 5.595-11.003 11.109-23.044 17.236-37.622-.074.221-.131.401-.172.507a359.1 359.1 0 0 1-1.889 4.516 475.858 475.858 0 0 1-4.598 10.52c-3.133 6.913-6.585 14.144-10.553 22.096zm18.439-39.766c.057-.474.017-.515-.024-.573l-.049-.057c.171-.417.343-.834.523-1.251-.147.621-.303 1.251-.45 1.881zM142.702 190.287c2.347-5.031 4.262-10.242 5.53-15.502-1.465 5.293-3.281 10.471-5.53 15.502zM87.335 266.145c-1.488-.564-2.658-1.48-3.272-2.986-.049-.122-.22-.024-.18.099.556 1.464 1.816 2.781 3.379 3.125.163.032.22-.18.073-.238zM87.483 259.208c-.581-.082-1.17-.253-1.75-.417-.132-.041-.263-.074-.394-.114.14.032.279.057.418.09.572.122 1.178.245 1.726.441z" fill="#7C909C"/></svg>